<svg width="757" height="202" viewBox="0 0 757 202" fill="none" xmlns="http://www.w3.org/2000/svg">
<rect width="757" height="202" fill="#52291D"/>
<mask id="mask0_203_175" style="mask-type:alpha" maskUnits="userSpaceOnUse" x="0" y="0" width="757" height="202">
<rect width="757" height="202" fill="#D9D9D9"/>
</mask>
<g mask="url(#mask0_203_175)">
<path d="M382.859 211.205C557.343 211.205 698.791 69.7572 698.791 -104.727V-357.249C698.791 -531.734 557.343 -673.181 382.859 -673.181C208.375 -673.181 66.9268 -531.734 66.9268 -357.249V-104.727C66.9269 69.7572 208.375 211.205 382.859 211.205ZM382.859 199.717C214.72 199.717 78.4154 63.4123 78.4152 -104.727V-357.249C78.4152 -525.389 214.72 -661.693 382.859 -661.693C550.998 -661.693 687.302 -525.389 687.302 -357.249V-104.727C687.302 63.4123 550.998 199.717 382.859 199.717Z" fill="#401E14"/>
<path d="M698.79 -104.727C698.79 69.7571 557.342 211.205 382.858 211.205C208.374 211.205 66.9263 69.7571 66.9261 -104.727V-357.249L66.9278 -358.271C67.4778 -531.945 208.163 -672.63 381.836 -673.18L382.858 -673.181C557.002 -673.181 698.237 -532.286 698.789 -358.271L698.79 -357.249V-104.727ZM677.422 -357.249V-104.727C677.421 57.9556 382.858 199.717 382.858 199.717C382.858 199.717 88.2949 57.9556 88.2947 -104.727V-357.249C88.2948 -519.932 220.176 -651.813 382.858 -651.813V-661.693L380.889 -661.687C214.312 -660.632 79.4758 -525.796 78.4208 -359.218L78.4145 -357.249V-104.727C78.4147 63.4122 214.719 199.717 382.858 199.717C550.997 199.717 687.302 63.4122 687.302 -104.727V-357.249L687.296 -359.218C686.236 -526.452 550.341 -661.693 382.858 -661.693V-651.813C545.541 -651.813 677.422 -519.932 677.422 -357.249ZM708.67 -357.249C708.67 -537.19 562.799 -683.062 382.858 -683.062C202.917 -683.062 57.0459 -537.19 57.0459 -357.249V-104.727C57.0461 75.2137 382.858 151.926 382.858 151.926C382.858 151.926 708.67 75.2137 708.67 -104.727V-357.249Z" fill="#401E14"/>
</g>
</svg>
