<svg width="56" height="11" viewBox="0 0 56 11" fill="none" xmlns="http://www.w3.org/2000/svg">
<path fill-rule="evenodd" clip-rule="evenodd" d="M16.2039 5.82102C16.2039 5.07636 16.736 4.4707 17.4549 4.4707C18.974 4.4707 18.5669 6.75433 18.5669 6.75433C19.1505 6.80421 19.6898 6.4476 20.2168 6.09915C20.6324 5.82436 21.0403 5.55465 21.4562 5.49337C21.8095 5.44131 22.1437 5.47063 22.2124 5.82102C22.2572 6.04961 21.9107 6.14949 21.6145 6.23489C21.5183 6.26264 21.4274 6.28886 21.3569 6.31745C20.9299 6.49074 20.5679 6.69029 20.234 6.87441C19.4964 7.28107 18.9702 7.41954 18.0307 7.41954C17.4549 7.41954 16.2039 6.76904 16.2039 5.82102ZM17.8241 6.6395C17.8241 6.6395 17.9185 5.97669 17.8241 5.65814C17.7278 5.33347 17.4514 5.11161 17.1451 5.2488C16.858 5.37742 16.8044 5.74997 16.9719 6.03555C17.1805 6.39136 17.8241 6.6395 17.8241 6.6395Z" fill="#F2F0E9"/>
<circle cx="13.2308" cy="3.4212" r="0.706358" fill="#F2F0E9"/>
<path d="M7.85254 0C10.7319 -2.30323e-07 10.7432 1.76063 10.7432 2.28809C10.7431 3.48483 9.41673 4.49403 9.41016 4.49902C9.41016 4.49902 9.92611 4.79955 10.2188 5.63086C10.9601 5.5146 11.5212 5.18555 11.9658 4.9248C12.4451 4.64379 12.7897 4.44195 13.0791 4.6709C13.3155 4.85875 13.1183 5.30345 12.8662 5.87305C12.8171 5.98405 12.7663 6.10023 12.7158 6.21973C12.687 6.28787 12.6575 6.35719 12.6279 6.42676C12.1259 7.60871 11.5552 8.95215 12.2051 8.95215C12.9061 8.95213 14.1193 7.09444 14.4004 6.64844C14.7791 5.62137 15.5539 4.64988 15.9951 4.95605C16.3697 5.21615 16.1832 5.43513 15.8779 5.79297C15.5294 6.20144 15.0265 6.79127 15.0264 7.83008C15.0264 8.3647 15.1819 8.95599 15.8057 8.95605C16.7081 8.95605 17.3994 7.71875 17.3994 7.71875C17.4096 7.72277 17.6754 7.82729 17.8525 7.87598C18.0833 7.93932 18.2126 7.96267 18.2139 7.96289C18.2023 7.98275 17.1793 9.73145 15.8057 9.73145C14.9075 9.7314 14.3506 9.11508 14.2129 8.19043C14.0064 8.48671 13.063 9.75468 12.0469 9.75488C11.3918 9.75488 11.1055 9.14334 11.1055 8.48828C11.1058 7.6186 12.0775 5.6751 12.0898 5.65039C12.0898 5.65039 11.5717 6.00309 11.2061 6.16211C10.9547 6.27137 10.5835 6.37208 10.3916 6.4209C10.4069 6.56561 10.415 6.72025 10.415 6.88477C10.415 8.13018 8.81508 10.2557 6.39258 10.2559C5.45765 10.2559 4.57939 9.94355 4.5791 9.07813C4.5791 8.61258 4.57882 7.49263 7.07227 6.61426C8.00056 6.28726 9.49512 5.91992 9.49512 5.91992C9.41057 5.51525 9.19914 5.29636 8.84668 4.95605C8.84668 4.95605 7.92264 5.51563 7.07227 5.51563C6.39111 5.51562 6.22086 5.04168 6.2207 4.72559C6.22075 4.11774 7.07276 3.8623 7.50977 3.8623C8.10353 3.86244 8.73347 4.11564 8.7373 4.11719C8.75066 4.10734 9.92871 3.23534 9.92871 2.08691C9.92871 2.08462 9.92866 2.08164 9.92871 2.07813C9.93082 1.93047 9.94731 0.76368 7.79395 0.763672C4.99268 0.763672 0.793198 3.23917 0.792969 6.88477C0.792969 7.92647 1.0483 9.07788 2.08984 9.07813C3.16156 9.07813 3.854 7.45011 4.61523 5.65918C5.23229 4.20745 5.89474 2.64796 6.84277 1.76074C7.08063 1.53821 7.63428 1.23673 7.79395 1.69922C7.85359 1.87232 7.73293 1.98353 7.50391 2.19336C7.12035 2.54477 6.43228 3.17475 5.77734 4.84375C4.73105 7.51009 3.70106 9.82422 2.22656 9.82422C1.57941 9.82419 0 9.71788 0 7.04004C0.000332727 3.65536 3.51877 0.000209201 7.85254 0ZM9.58789 6.61816C9.54283 6.62744 5.36328 7.49155 5.36328 8.96875C5.36343 9.27137 5.55112 9.51657 6.40137 9.5166C8.23255 9.5166 9.58777 7.7573 9.58789 6.61816ZM7.37402 4.53711C7.21504 4.53107 6.96545 4.57512 6.98926 4.73242C7.01334 4.89076 7.25099 4.87901 7.40918 4.85352C7.64576 4.81531 7.92969 4.59961 7.92969 4.59961C7.92969 4.59961 7.72022 4.55026 7.37402 4.53711Z" fill="#F2F0E9"/>
<path d="M21.1488 9.01491V8.17351H21.5603C21.6135 8.17351 21.6622 8.18453 21.7063 8.20657C21.7511 8.22861 21.7865 8.26054 21.8123 8.30234C21.8389 8.34339 21.8522 8.39355 21.8522 8.45284C21.8522 8.51212 21.8385 8.56267 21.8112 8.60447C21.7838 8.64627 21.7473 8.6782 21.7017 8.70024C21.6561 8.72152 21.6056 8.73216 21.5501 8.73216H21.2685V8.57369H21.5045C21.5364 8.57369 21.5638 8.56343 21.5866 8.5429C21.6101 8.52238 21.6219 8.49198 21.6219 8.4517C21.6219 8.40989 21.6101 8.38025 21.5866 8.36277C21.5638 8.34453 21.5368 8.3354 21.5056 8.3354H21.3677V9.01491H21.1488ZM21.6858 8.62613L21.8773 9.01491H21.6379L21.4589 8.62613H21.6858ZM21.4783 9.51656C21.3521 9.51656 21.2339 9.493 21.1237 9.44587C21.0135 9.39875 20.9166 9.33338 20.8329 9.24977C20.7493 9.16617 20.684 9.06926 20.6368 8.95905C20.5897 8.84883 20.5662 8.73064 20.5662 8.60447C20.5662 8.4783 20.5897 8.36011 20.6368 8.2499C20.684 8.13969 20.7493 8.04278 20.8329 7.95917C20.9166 7.87556 21.0135 7.81019 21.1237 7.76307C21.2339 7.71595 21.3521 7.69238 21.4783 7.69238C21.6044 7.69238 21.7226 7.71595 21.8328 7.76307C21.943 7.81019 22.0399 7.87556 22.1236 7.95917C22.2072 8.04278 22.2725 8.13969 22.3197 8.2499C22.3668 8.36011 22.3903 8.4783 22.3903 8.60447C22.3903 8.73064 22.3668 8.84883 22.3197 8.95905C22.2725 9.06926 22.2072 9.16617 22.1236 9.24977C22.0399 9.33338 21.943 9.39875 21.8328 9.44587C21.7226 9.493 21.6044 9.51656 21.4783 9.51656ZM21.4783 9.276C21.6029 9.276 21.7158 9.24597 21.8169 9.18593C21.9187 9.12512 21.9997 9.04417 22.0597 8.94308C22.1198 8.84123 22.1498 8.72836 22.1498 8.60447C22.1498 8.48058 22.1194 8.36809 22.0586 8.267C21.9985 8.16515 21.9176 8.0842 21.8157 8.02415C21.7146 7.96335 21.6021 7.93295 21.4783 7.93295C21.3551 7.93295 21.2426 7.96335 21.1408 8.02415C21.0389 8.0842 20.958 8.16515 20.8979 8.267C20.8379 8.36809 20.8079 8.48058 20.8079 8.60447C20.8079 8.72836 20.8379 8.84123 20.8979 8.94308C20.958 9.04417 21.0389 9.12512 21.1408 9.18593C21.2426 9.24597 21.3551 9.276 21.4783 9.276Z" fill="#F2F0E9"/>
<rect x="24.3903" y="4.56348" width="0.618787" height="5.69269" fill="#F2F0E9"/>
<path d="M53.5939 10.256C53.3099 10.256 53.0664 10.2169 52.8634 10.1387C52.6617 10.0619 52.5012 9.95694 52.3818 9.82386C52.2625 9.69079 52.1849 9.54125 52.1493 9.37524L52.9601 9.26617C52.9848 9.32928 53.0239 9.38828 53.0774 9.44315C53.1309 9.49803 53.2015 9.54193 53.2893 9.57486C53.3785 9.60916 53.4869 9.6263 53.6145 9.6263C53.8052 9.6263 53.9623 9.57966 54.0858 9.48637C54.2106 9.39445 54.273 9.24011 54.273 9.02334V8.44507H54.236C54.1976 8.53288 54.1399 8.61588 54.0631 8.69408C53.9863 8.77228 53.8875 8.83607 53.7668 8.88546C53.6461 8.93485 53.502 8.95955 53.3346 8.95955C53.0973 8.95955 52.8812 8.90467 52.6864 8.79491C52.4929 8.68379 52.3386 8.51436 52.2234 8.28661C52.1095 8.0575 52.0526 7.76803 52.0526 7.41818C52.0526 7.06011 52.1109 6.76103 52.2275 6.52094C52.3441 6.28085 52.4991 6.10113 52.6926 5.98177C52.8874 5.86241 53.1007 5.80273 53.3326 5.80273C53.5095 5.80273 53.6577 5.83292 53.7771 5.89328C53.8964 5.95227 53.9925 6.02636 54.0652 6.11553C54.1393 6.20334 54.1962 6.28977 54.236 6.37483H54.2689V5.84389H55.1394V9.03569C55.1394 9.30459 55.0735 9.52958 54.9418 9.71068C54.8101 9.89177 54.6277 10.0276 54.3944 10.1181C54.1626 10.2101 53.8957 10.256 53.5939 10.256ZM53.6124 8.30102C53.7537 8.30102 53.8731 8.26604 53.9705 8.19607C54.0693 8.12473 54.1447 8.0232 54.1969 7.8915C54.2504 7.75842 54.2771 7.59928 54.2771 7.41407C54.2771 7.22886 54.2511 7.06834 54.1989 6.93252C54.1468 6.79533 54.0713 6.689 53.9726 6.61355C53.8738 6.53809 53.7537 6.50036 53.6124 6.50036C53.4684 6.50036 53.347 6.53946 53.2482 6.61766C53.1494 6.69449 53.0746 6.8015 53.0239 6.93869C52.9731 7.07589 52.9477 7.23434 52.9477 7.41407C52.9477 7.59653 52.9731 7.75431 53.0239 7.88738C53.076 8.01909 53.1508 8.1213 53.2482 8.19401C53.347 8.26535 53.4684 8.30102 53.6124 8.30102Z" fill="#F2F0E9"/>
<path d="M49.4417 7.17741V9.00482H48.565V5.84389H49.4005V6.40158H49.4375C49.5075 6.21774 49.6248 6.07232 49.7894 5.96531C49.9541 5.85693 50.1537 5.80273 50.3883 5.80273C50.6078 5.80273 50.7992 5.85075 50.9625 5.94679C51.1257 6.04282 51.2526 6.18001 51.3432 6.35837C51.4337 6.53535 51.479 6.74662 51.479 6.9922V9.00482H50.6023V7.1486C50.6037 6.95516 50.5543 6.80424 50.4542 6.69586C50.354 6.58611 50.2161 6.53123 50.0405 6.53123C49.9225 6.53123 49.8183 6.55661 49.7277 6.60737C49.6385 6.65813 49.5686 6.73222 49.5178 6.82962C49.4684 6.92566 49.443 7.04159 49.4417 7.17741Z" fill="#F2F0E9"/>
<path d="M46.986 9.00417V5.84324H47.8627V9.00417H46.986ZM47.4264 5.43578C47.296 5.43578 47.1842 5.39257 47.0909 5.30613C46.999 5.21833 46.9531 5.11338 46.9531 4.99128C46.9531 4.87055 46.999 4.76697 47.0909 4.68053C47.1842 4.59273 47.296 4.54883 47.4264 4.54883C47.5567 4.54883 47.6678 4.59273 47.7598 4.68053C47.8531 4.76697 47.8997 4.87055 47.8997 4.99128C47.8997 5.11338 47.8531 5.21833 47.7598 5.30613C47.6678 5.39257 47.5567 5.43578 47.4264 5.43578Z" fill="#F2F0E9"/>
<path d="M46.415 5.84422V6.50275H44.5114V5.84422H46.415ZM44.9436 5.08691H45.8202V8.03382C45.8202 8.11476 45.8326 8.17787 45.8573 8.22315C45.882 8.26705 45.9163 8.29792 45.9602 8.31575C46.0054 8.33359 46.0576 8.34251 46.1166 8.34251C46.1577 8.34251 46.1989 8.33908 46.24 8.33222C46.2812 8.32398 46.3128 8.31781 46.3347 8.31369L46.4726 8.96605C46.4287 8.97977 46.3669 8.99554 46.2874 9.01338C46.2078 9.03259 46.1111 9.04425 45.9972 9.04836C45.7859 9.0566 45.6007 9.02847 45.4416 8.96399C45.2838 8.89951 45.161 8.79936 45.0732 8.66354C44.9854 8.52772 44.9422 8.35622 44.9436 8.14906V5.08691Z" fill="#F2F0E9"/>
<path d="M42.7108 9.06656C42.3856 9.06656 42.1057 9.0007 41.8711 8.869C41.6379 8.73592 41.4582 8.54797 41.332 8.30514C41.2057 8.06093 41.1426 7.77214 41.1426 7.43876C41.1426 7.11361 41.2057 6.82825 41.332 6.58268C41.4582 6.3371 41.6358 6.14572 41.865 6.00852C42.0954 5.87133 42.3657 5.80273 42.6758 5.80273C42.8843 5.80273 43.0784 5.83635 43.2582 5.90357C43.4393 5.96942 43.597 6.06889 43.7315 6.20197C43.8673 6.33504 43.9729 6.50242 44.0484 6.70409C44.1238 6.90439 44.1616 7.13899 44.1616 7.40789V7.64867H41.4925V7.10538H43.3364C43.3364 6.97916 43.3089 6.86735 43.254 6.76995C43.1992 6.67254 43.123 6.5964 43.0256 6.54152C42.9296 6.48527 42.8178 6.45715 42.6902 6.45715C42.5571 6.45715 42.4391 6.48801 42.3362 6.54975C42.2347 6.61012 42.1551 6.69175 42.0975 6.79464C42.0399 6.89616 42.0104 7.00935 42.009 7.13419V7.65072C42.009 7.80712 42.0378 7.94226 42.0954 8.05613C42.1544 8.17 42.2374 8.2578 42.3444 8.31954C42.4515 8.38128 42.5784 8.41215 42.7252 8.41215C42.8226 8.41215 42.9117 8.39843 42.9927 8.37099C43.0736 8.34355 43.1429 8.30239 43.2005 8.24751C43.2582 8.19264 43.3021 8.12541 43.3322 8.04584L44.1431 8.09935C44.1019 8.29416 44.0175 8.46428 43.8899 8.6097C43.7637 8.75376 43.6005 8.86626 43.4002 8.9472C43.2012 9.02677 42.9714 9.06656 42.7108 9.06656Z" fill="#F2F0E9"/>
<path d="M38.8219 8.09502L38.8239 7.04344H38.9515L39.964 5.84368H40.9703L39.61 7.43238H39.4022L38.8219 8.09502ZM38.0275 9.00461V4.79004H38.9042V9.00461H38.0275ZM40.0031 9.00461L39.0729 7.62788L39.6574 7.00845L41.03 9.00461H40.0031Z" fill="#F2F0E9"/>
<path d="M35.6563 9.00503V5.8441H36.5062V6.39562H36.5391C36.5968 6.19943 36.6935 6.05126 36.8293 5.95111C36.9651 5.84959 37.1215 5.79883 37.2985 5.79883C37.3424 5.79883 37.3897 5.80157 37.4405 5.80706C37.4913 5.81255 37.5359 5.82009 37.5743 5.8297V6.60758C37.5331 6.59523 37.4762 6.58426 37.4035 6.57466C37.3308 6.56505 37.2642 6.56025 37.2038 6.56025C37.0749 6.56025 36.9596 6.58837 36.8581 6.64462C36.758 6.6995 36.6784 6.77633 36.6194 6.87511C36.5618 6.97389 36.533 7.08776 36.533 7.21672V9.00503H35.6563Z" fill="#F2F0E9"/>
<path d="M33.1961 9.0645C32.9944 9.0645 32.8147 9.02951 32.6569 8.95955C32.4991 8.88821 32.3743 8.78325 32.2824 8.64469C32.1918 8.50475 32.1465 8.33052 32.1465 8.12198C32.1465 7.94638 32.1788 7.79889 32.2433 7.67954C32.3077 7.56018 32.3956 7.46414 32.5067 7.39143C32.6178 7.31872 32.744 7.26384 32.8853 7.2268C33.028 7.18976 33.1776 7.16369 33.334 7.1486C33.5178 7.12939 33.666 7.11156 33.7785 7.09509C33.891 7.07726 33.9726 7.05119 34.0233 7.01689C34.0741 6.98259 34.0995 6.93183 34.0995 6.86461V6.85226C34.0995 6.72193 34.0583 6.62109 33.976 6.54975C33.8951 6.47841 33.7798 6.44274 33.6303 6.44274C33.4725 6.44274 33.347 6.47772 33.2537 6.54769C33.1604 6.61629 33.0987 6.70272 33.0685 6.80699L32.2577 6.74113C32.2988 6.54906 32.3798 6.38306 32.5005 6.24312C32.6212 6.10181 32.7769 5.99343 32.9676 5.91798C33.1597 5.84115 33.382 5.80273 33.6344 5.80273C33.81 5.80273 33.9781 5.82331 34.1386 5.86447C34.3005 5.90563 34.4438 5.96942 34.5687 6.05586C34.6949 6.14229 34.7944 6.25341 34.8671 6.38923C34.9398 6.52368 34.9762 6.68489 34.9762 6.87284V9.00482H34.1448V8.56649H34.1201C34.0693 8.66527 34.0014 8.75239 33.9163 8.82784C33.8313 8.90193 33.7291 8.96023 33.6097 9.00276C33.4904 9.04392 33.3525 9.0645 33.1961 9.0645ZM33.4471 8.45948C33.5761 8.45948 33.69 8.4341 33.7887 8.38334C33.8875 8.3312 33.965 8.26123 34.0213 8.17343C34.0775 8.08563 34.1057 7.98616 34.1057 7.87504V7.5396C34.0782 7.55743 34.0405 7.5739 33.9925 7.58899C33.9458 7.60271 33.893 7.61574 33.834 7.62809C33.775 7.63906 33.716 7.64935 33.657 7.65896C33.598 7.66719 33.5445 7.67473 33.4965 7.68159C33.3936 7.69668 33.3038 7.72069 33.2269 7.75362C33.1501 7.78655 33.0904 7.83113 33.0479 7.88738C33.0054 7.94226 32.9841 8.01086 32.9841 8.09317C32.9841 8.21253 33.0273 8.30376 33.1138 8.36687C33.2016 8.42861 33.3127 8.45948 33.4471 8.45948Z" fill="#F2F0E9"/>
<path d="M27.009 9.00482V5.84389H27.8445V6.40158H27.8816C27.9474 6.21637 28.0572 6.07026 28.2108 5.96325C28.3645 5.85624 28.5483 5.80273 28.7624 5.80273C28.9791 5.80273 29.1637 5.85693 29.3159 5.96531C29.4682 6.07232 29.5697 6.21774 29.6205 6.40158H29.6534C29.7179 6.22049 29.8345 6.07575 30.0033 5.96737C30.1734 5.85761 30.3744 5.80273 30.6062 5.80273C30.9012 5.80273 31.1406 5.89671 31.3244 6.08467C31.5097 6.27125 31.6023 6.53603 31.6023 6.87901V9.00482H30.7277V7.05188C30.7277 6.87627 30.681 6.74456 30.5877 6.65676C30.4944 6.56896 30.3778 6.52506 30.2379 6.52506C30.0787 6.52506 29.9546 6.57582 29.8654 6.67734C29.7762 6.77749 29.7316 6.90988 29.7316 7.07451V9.00482H28.8817V7.03336C28.8817 6.87833 28.8371 6.75485 28.748 6.66293C28.6602 6.57102 28.5442 6.52506 28.4002 6.52506C28.3028 6.52506 28.215 6.54975 28.1368 6.59914C28.0599 6.64716 27.9989 6.71507 27.9536 6.80287C27.9083 6.8893 27.8857 6.99083 27.8857 7.10744V9.00482H27.009Z" fill="#F2F0E9"/>
</svg>
