<svg width="176" height="35" viewBox="0 0 176 35" fill="none" xmlns="http://www.w3.org/2000/svg">
<path d="M161.063 7.23558C161.063 6.57219 161.144 5.93308 161.306 5.31823C161.468 4.698 161.7 4.12091 162.002 3.58696C162.309 3.05302 162.679 2.56762 163.11 2.13076C163.547 1.69389 164.035 1.31905 164.575 1.00624C165.114 0.693424 165.702 0.45342 166.338 0.286225C166.975 0.113638 167.649 0.0273438 168.361 0.0273438C169.067 0.0273438 169.739 0.113638 170.375 0.286225C171.012 0.45342 171.599 0.693424 172.139 1.00624C172.683 1.31905 173.172 1.69389 173.603 2.13076C174.04 2.56762 174.409 3.05302 174.711 3.58696C175.013 4.12091 175.245 4.698 175.407 5.31823C175.574 5.93308 175.658 6.57219 175.658 7.23558C175.658 7.89896 175.577 8.53807 175.415 9.15292C175.253 9.76776 175.019 10.3422 174.711 10.8761C174.409 11.41 174.04 11.8981 173.603 12.3404C173.172 12.7773 172.686 13.1521 172.147 13.4649C171.608 13.7777 171.02 14.0204 170.383 14.193C169.747 14.3656 169.073 14.4519 168.361 14.4519C167.649 14.4519 166.975 14.3656 166.338 14.193C165.702 14.0204 165.111 13.7777 164.566 13.4649C164.027 13.1521 163.542 12.7773 163.11 12.3404C162.679 11.8981 162.309 11.41 162.002 10.8761C161.7 10.3422 161.468 9.76776 161.306 9.15292C161.144 8.53807 161.063 7.89896 161.063 7.23558ZM162.754 7.23558C162.754 7.76952 162.816 8.2765 162.94 8.7565C163.064 9.23112 163.242 9.67338 163.474 10.0833C163.712 10.4878 163.995 10.8545 164.324 11.1835C164.658 11.5125 165.033 11.793 165.448 12.0249C165.864 12.2568 166.317 12.4348 166.807 12.5588C167.298 12.6829 167.816 12.7449 168.361 12.7449C169.175 12.7449 169.925 12.6074 170.61 12.3323C171.3 12.0572 171.893 11.677 172.39 11.1916C172.886 10.7008 173.271 10.1183 173.546 9.44416C173.827 8.76999 173.967 8.03379 173.967 7.23558C173.967 6.44275 173.827 5.70925 173.546 5.03508C173.271 4.36091 172.886 3.77843 172.39 3.28763C171.893 2.79684 171.303 2.41391 170.618 2.13885C169.933 1.86378 169.18 1.72625 168.361 1.72625C167.541 1.72625 166.786 1.86378 166.095 2.13885C165.411 2.41391 164.82 2.79684 164.324 3.28763C163.828 3.77843 163.442 4.36091 163.167 5.03508C162.892 5.70925 162.754 6.44275 162.754 7.23558ZM165.286 3.77304H167.794C168.576 3.77304 169.224 3.83776 169.736 3.9672C170.248 4.09124 170.656 4.26114 170.958 4.47687C171.26 4.6926 171.47 4.94609 171.589 5.23733C171.713 5.52318 171.775 5.82791 171.775 6.15151C171.775 6.39421 171.742 6.62613 171.678 6.84725C171.618 7.06838 171.519 7.27333 171.378 7.4621C171.243 7.64547 171.068 7.80997 170.852 7.95559C170.637 8.10121 170.372 8.22526 170.06 8.32773L171.904 10.5444H169.906L168.288 8.60279H167.835L166.937 8.5947V10.5444H165.286V3.77304ZM167.819 7.24367C168.239 7.24367 168.593 7.22209 168.878 7.17895C169.17 7.13041 169.402 7.06299 169.574 6.97669C169.747 6.88501 169.871 6.77714 169.946 6.65309C170.022 6.52365 170.06 6.37803 170.06 6.21623C170.06 6.05982 170.022 5.9169 169.946 5.78746C169.876 5.65802 169.752 5.54745 169.574 5.45577C169.402 5.36408 169.17 5.29396 168.878 5.24542C168.593 5.19149 168.231 5.16452 167.794 5.16452H166.937V7.24367H167.819Z" fill="white"/>
<path d="M0 16.6196C0 14.2937 0.436987 12.1229 1.31096 10.1071C2.18493 8.0772 3.46065 6.31516 5.13812 4.82095C6.81558 3.32674 8.87365 2.14969 11.3123 1.28982C13.7651 0.429939 16.5703 0 19.7278 0C20.8696 0 22.0114 0.0634339 23.1532 0.190301C24.3091 0.303072 25.4439 0.486324 26.5575 0.740058C27.6852 0.993792 28.7777 1.31801 29.8349 1.71271C30.9062 2.09331 31.9212 2.55144 32.8797 3.0871L29.7926 8.16178C29.2147 7.82347 28.5592 7.5204 27.8262 7.25257C27.0932 6.97064 26.3038 6.73805 25.458 6.5548C24.6263 6.35745 23.7594 6.20944 22.8572 6.11076C21.9691 6.01209 21.074 5.96275 20.1719 5.96275C18.0856 5.96275 16.2249 6.23058 14.5897 6.76624C12.9545 7.28781 11.5731 8.02787 10.4454 8.98642C9.31768 9.93087 8.45781 11.0656 7.86576 12.3907C7.27371 13.7157 6.97769 15.1677 6.97769 16.7465C6.97769 18.3816 7.28781 19.8829 7.90805 21.2502C8.52829 22.6176 9.40931 23.7946 10.5511 24.7814C11.6929 25.7681 13.0744 26.5434 14.6954 27.1073C16.3165 27.657 18.1279 27.9319 20.1296 27.9319C21.7225 27.9319 23.1814 27.7557 24.5065 27.4033C25.8315 27.0368 26.9874 26.5223 27.9742 25.8597C28.9609 25.1972 29.7644 24.4008 30.3847 23.4704C31.0049 22.526 31.4137 21.4687 31.611 20.2987H20.0661V14.78H37.6372V14.8012L37.6584 14.78C38.0108 16.4716 38.1165 18.1208 37.9755 19.7278C37.8487 21.3207 37.4822 22.829 36.876 24.2528C36.284 25.6624 35.4664 26.9593 34.4233 28.1433C33.3801 29.3274 32.1326 30.3494 30.6807 31.2093C29.2288 32.0551 27.5795 32.7176 25.7329 33.1969C23.8863 33.6621 21.8634 33.8947 19.6644 33.8947C16.5914 33.8947 13.8356 33.4436 11.3969 32.5414C8.97232 31.6392 6.91426 30.4058 5.22269 28.8411C3.53113 27.2764 2.23427 25.4439 1.3321 23.3435C0.444035 21.2432 0 19.0019 0 16.6196Z" fill="white"/>
<path d="M127.624 0.422363H155.767V6.30054H134.327V12.8976H153.315V18.4163H134.327V27.6142H156.211V33.4712H127.624V0.422363Z" fill="white"/>
<path d="M84.2773 0.422363H90.9802L111.575 11.2061V0.422363H118.278V33.4712H111.575V18.3106L90.9802 7.59035V33.4712H84.2773V0.422363Z" fill="white"/>
<path fill-rule="evenodd" clip-rule="evenodd" d="M60.2638 0.435198H60.8913H78.9005V16.6117L78.9062 16.9054L78.9038 17.1796L78.9005 17.4734C78.9005 18.5832 78.81 19.6472 78.6288 20.6721C78.4028 21.9516 78.0364 23.1658 77.5288 24.3148C76.6141 26.3842 75.3346 28.1533 73.6879 29.6286C72.0281 31.1235 70.0444 32.279 67.7376 33.095C66.5731 33.5063 65.3475 33.8131 64.0598 34.0154C62.7795 34.2178 61.438 34.3157 60.0353 34.3157L59.806 34.3223H41.1693L41.1701 17.4799C41.1701 14.9731 41.627 12.6687 42.541 10.5732C43.4557 8.4908 44.7426 6.70212 46.4031 5.19414C47.2387 4.43036 48.1616 3.75144 49.171 3.15739C49.8426 2.76571 50.5517 2.40667 51.3 2.08679C51.6435 1.93665 51.9944 1.79956 52.3534 1.669C54.675 0.839937 57.2356 0.422142 60.0353 0.422142L60.2638 0.435198ZM71.3035 12.8776C71.909 14.242 72.2109 15.7761 72.2109 17.4734C72.2109 19.1772 71.909 20.7048 71.3035 22.0561C70.685 23.4074 69.8339 24.5433 68.7502 25.4768C68.2517 25.9011 67.7139 26.2862 67.1362 26.6192C66.4434 27.0239 65.6943 27.3568 64.8889 27.6245C64.1863 27.8595 63.456 28.0358 62.6979 28.1533C62.0761 28.2512 61.4364 28.3165 60.7779 28.3426L60.0353 28.3622C58.2907 28.3622 56.6799 28.1206 55.2029 27.6245C53.7113 27.1349 52.4244 26.4168 51.3408 25.4768C50.8112 25.0198 50.3371 24.5171 49.9185 23.9623C49.6941 23.662 49.486 23.3486 49.2934 23.0222C49.1106 22.7154 48.9417 22.3955 48.7875 22.0561C48.4945 21.4163 48.271 20.7374 48.1167 20.0193C47.9446 19.2229 47.8589 18.3743 47.8589 17.4734L47.8785 16.7488L47.8956 16.4746L47.9478 15.9458C48.08 14.8426 48.3599 13.8177 48.7875 12.8776C48.8879 12.6557 48.9939 12.4403 49.1057 12.2314L49.4028 11.7091L49.5105 11.5329L49.7528 11.1673C49.9226 10.9192 50.0352 10.7691 50.2261 10.5406C50.3909 10.3382 50.5631 10.1424 50.7426 9.95308C50.9336 9.75071 51.1327 9.5614 51.3408 9.37209C52.4244 8.41899 53.7113 7.6748 55.2029 7.15908C56.6799 6.63684 58.2907 6.37572 60.0353 6.37572C61.7791 6.37572 63.3973 6.63684 64.8889 7.15908C66.3659 7.6748 67.6527 8.41899 68.7502 9.37209C69.8339 10.3448 70.685 11.5133 71.3035 12.8776Z" fill="white"/>
</svg>
