<svg width="342" height="99" viewBox="0 0 342 99" fill="none" xmlns="http://www.w3.org/2000/svg">
<defs>
  <linearGradient id="goldGradient" x1="0%" y1="0%" x2="100%" y2="0%">
    <stop offset="0%" stop-color="#C5A059" />
    <stop offset="100%" stop-color="#E5C992" />
  </linearGradient>
</defs>
<path d="M328.884 58.8205H299.995V0.875H325.357V2.47061L304.446 1.71479V28.5881H323.594V29.4279H304.446V57.9808L328.884 57.2249V58.8205Z" fill="url(#goldGradient)"/>
<path d="M289.225 49.8348L288.469 0.875H290.149V59.6603L256.305 4.06621L257.061 58.8205H255.382V0.875H259.413L289.225 49.8348Z" fill="url(#goldGradient)"/>
<path d="M190.046 29.8478C190.046 11.3724 201.047 0.0352173 218.935 0.0352173C236.822 0.0352173 247.823 11.3724 247.823 29.8478C247.823 48.3232 236.822 59.6603 218.935 59.6603C201.047 59.6603 190.046 48.3232 190.046 29.8478ZM194.833 29.8478C194.833 46.9795 204.658 58.8206 218.935 58.8206C233.127 58.8206 243.037 46.9795 243.037 29.8478C243.037 12.7161 233.127 0.875007 218.935 0.875007C204.658 0.875007 194.833 12.7161 194.833 29.8478Z" fill="url(#goldGradient)"/>
<path d="M155.878 52.942L177.797 0.875H182.5V58.8205H178.133V2.30264L153.947 59.6603L129.845 2.30264L130.601 58.8205H128.921V0.875H133.96L155.878 52.942Z" fill="url(#goldGradient)"/>
<path d="M91.1363 29.4279V58.8205H86.6854V0.875H97.2668C109.192 0.875 115.658 5.82977 115.658 14.8995C115.658 22.7096 111.291 27.5803 102.977 29.008C106.001 29.7638 108.016 31.2754 109.612 34.0467L123.72 58.8205H118.681L102.138 29.092C100.878 29.3439 99.3663 29.4279 97.1828 29.4279H91.1363ZM110.871 14.9835C110.871 5.74579 106.672 1.71479 97.1828 1.71479H91.1363V28.5881H97.1828C106.253 28.5881 110.871 23.9692 110.871 14.9835Z" fill="url(#goldGradient)"/>
<path d="M61.7785 0.0352173L82.0175 58.8206H77.3146L69.9245 37.2379H50.4413L43.3871 58.8206H41.6235L61.7785 0.0352173ZM50.6933 36.3981H69.6725L59.931 8.01323L50.6933 36.3981Z" fill="url(#goldGradient)"/>
<path d="M0 58.8205V0.875H4.45089V28.5881H32.4159V0.875H36.8668V58.8205H32.4159V29.4279H4.45089V58.8205H0Z" fill="url(#goldGradient)"/>
<path d="M180.776 75.0622C180.776 76.7418 179.32 78.6174 176.409 80.6888C175.345 81.4726 173.834 82.2005 171.874 82.8723C169.971 83.5441 168.403 83.88 167.171 83.88C166.556 83.88 166.108 83.7961 165.828 83.6281C159.949 89.1707 157.01 93.2297 157.01 95.8051C157.01 96.8128 157.626 97.3167 158.858 97.3167C162.777 97.3167 168.767 93.5376 176.829 85.9795C177.389 85.4756 177.781 85.3637 178.005 85.6436C178.229 85.9235 178.089 86.3154 177.585 86.8193C168.683 95.0493 162.049 98.9403 157.682 98.4924C154.939 98.2125 153.679 96.7008 153.903 93.9575C154.183 90.5984 156.366 86.9593 160.453 83.0403C162.749 80.8008 165.52 78.6733 168.767 76.6578C172.742 74.1945 175.905 72.9628 178.257 72.9628C179.936 72.9628 180.776 73.6626 180.776 75.0622ZM179.18 74.1385C179.125 74.0265 179.013 73.9705 178.845 73.9705C177.837 73.9705 175.681 75.2862 172.378 77.9175C169.971 79.8211 167.955 81.5566 166.332 83.1242C166.5 83.1802 166.724 83.2082 167.004 83.2082C169.355 83.2082 172.182 81.8925 175.485 79.2612C178.061 77.2457 179.348 75.6781 179.348 74.5584C179.348 74.3344 179.292 74.1945 179.18 74.1385Z" fill="url(#goldGradient)"/>
<path d="M163.308 75.0622C163.308 76.7418 161.852 78.6174 158.941 80.6888C157.877 81.4726 156.366 82.2005 154.406 82.8723C152.503 83.5441 150.935 83.88 149.703 83.88C149.087 83.88 148.639 83.7961 148.36 83.6281C142.481 89.1707 139.542 93.2297 139.542 95.8051C139.542 96.8128 140.158 97.3167 141.389 97.3167C145.308 97.3167 151.299 93.5376 159.361 85.9795C159.921 85.4756 160.313 85.3637 160.537 85.6436C160.76 85.9235 160.62 86.3154 160.117 86.8193C151.215 95.0493 144.58 98.9403 140.214 98.4924C137.47 98.2125 136.211 96.7008 136.435 93.9575C136.714 90.5984 138.898 86.9593 142.985 83.0403C145.28 80.8008 148.052 78.6733 151.299 76.6578C155.274 74.1945 158.437 72.9628 160.788 72.9628C162.468 72.9628 163.308 73.6626 163.308 75.0622ZM161.712 74.1385C161.656 74.0265 161.544 73.9705 161.376 73.9705C160.369 73.9705 158.213 75.2862 154.91 77.9175C152.503 79.8211 150.487 81.5566 148.863 83.1242C149.031 83.1802 149.255 83.2082 149.535 83.2082C151.887 83.2082 154.714 81.8925 158.017 79.2612C160.593 77.2457 161.88 75.6781 161.88 74.5584C161.88 74.3344 161.824 74.1945 161.712 74.1385Z" fill="url(#goldGradient)"/>
<path d="M216.903 47.601C216.287 50.9042 214.747 53.1996 212.284 54.4873C211.78 54.7672 211.472 54.7672 211.36 54.4873C211.304 54.3193 211.472 54.0674 211.864 53.7315C214.104 51.716 215.223 49.1126 215.223 45.9214C215.223 41.3306 213.124 37.8874 208.925 35.592C205.566 33.8005 201.367 32.9047 196.328 32.9047C185.859 32.9047 173.122 38.8392 158.117 50.7083C146.92 59.554 135.583 69.9954 124.106 82.0324C131.944 76.0979 137.487 73.1307 140.734 73.1307C142.357 73.1307 143.169 73.9145 143.169 75.4821C143.169 78.3374 140.65 82.2284 135.611 87.1552C127.941 94.6573 121.083 98.4084 115.036 98.4084C112.237 98.4084 110.837 97.3166 110.837 95.1332C110.837 91.998 114.28 86.8472 121.167 79.681C133.652 66.6923 145.493 56.1389 156.69 48.0209C171.974 36.9917 185.355 31.4771 196.832 31.4771C202.151 31.4771 206.629 32.4288 210.268 34.3323C214.859 36.7397 217.155 40.3788 217.155 45.2496C217.155 45.9214 217.071 46.7052 216.903 47.601ZM139.978 74.4743C137.235 74.4743 131.524 77.7775 122.846 84.3839C120.887 85.8955 118.955 87.687 117.052 89.7585C114.308 92.7818 113.161 94.9652 113.609 96.3089C113.833 96.9807 114.364 97.3166 115.204 97.3166C116.884 97.3166 119.011 96.3369 121.587 94.3774C123.098 93.2576 126.205 90.5143 130.908 86.1474C132.252 84.9157 134.267 83.0402 136.955 80.5208C139.642 77.9455 140.986 76.1819 140.986 75.2301C140.986 74.7263 140.65 74.4743 139.978 74.4743Z" fill="url(#goldGradient)"/>
<path d="M336.784 0.00012207C339.625 0.00012207 341.76 2.14864 341.76 4.96151C341.76 7.77437 339.569 9.97943 336.756 9.97943C333.943 9.97943 331.78 7.77437 331.78 4.98978C331.78 2.20518 333.943 0.00012207 336.784 0.00012207ZM336.756 9.45644C339.272 9.45644 341.223 7.47754 341.223 4.96151C341.223 2.44548 339.328 0.523117 336.784 0.523117C334.226 0.523117 332.303 2.48788 332.303 4.98978C332.303 7.49167 334.226 9.45644 336.756 9.45644ZM339.286 4.0286C339.286 4.90497 338.82 5.52691 338.014 5.80961L339.343 7.84505H338.579L337.35 5.93682C337.237 5.95096 337.138 5.95096 337.024 5.95096H335.554V7.84505H334.819V2.13451H337.024C338.424 2.13451 339.286 2.86953 339.286 4.0286ZM336.982 5.32902C337.986 5.32902 338.565 4.84843 338.565 4.0286C338.565 3.2229 337.986 2.75645 336.982 2.75645H335.54V5.32902H336.982Z" fill="url(#goldGradient)"/>
</svg>
