<svg width="554" height="902" viewBox="0 0 554 902" fill="none" xmlns="http://www.w3.org/2000/svg">
<path d="M42.9414 301.454C39.9255 240.288 84.995 195.236 145.763 198.68L147.201 198.771C149.513 198.93 151.798 199.056 153.969 199.531L154.401 199.632C156.82 200.241 159.27 200.854 161.184 202.034C162.942 203.119 164.236 204.677 164.573 207.195L164.628 207.712C164.748 209.275 164.502 210.473 164.022 211.415C163.543 212.357 162.812 213.081 161.905 213.666C160.061 214.855 157.586 215.421 155.19 216.089C140.013 220.321 125.091 225.351 113.376 237.544L113.036 237.896L113.383 238.243L113.416 238.277L113.646 238.508L113.95 238.389C128.435 232.79 142.871 227.099 158.449 225.656L159.961 225.529C169.021 224.844 175.207 226.31 178.674 229.938C182.127 233.552 183.038 239.478 181.119 248.122V248.123C174.48 278.13 159.158 300.638 137.673 313.451C116.188 326.264 88.4743 329.422 56.9766 320.604H56.9756C52.2151 319.269 48.8476 316.985 46.6016 313.814C44.3499 310.635 43.1903 306.516 42.9414 301.455V301.454Z" stroke="black"/>
<path d="M454.794 608.711C468.881 608.91 482.985 616.153 493.54 626.881C504.095 637.61 511.043 651.766 510.893 665.719L510.89 665.929L510.923 665.961C510.721 679.864 503.543 693.901 492.898 704.495C482.2 715.142 468.062 722.249 454.129 722.266C424.262 722.332 396.863 694.992 396.963 665.222C397.012 650.643 404.121 636.412 414.917 625.868C425.543 615.489 439.698 608.726 454.107 608.707L454.794 608.711Z" stroke="black"/>
<path d="M179.421 329.407C181.062 329.517 182.596 330.273 183.925 332.062C185.158 333.72 185.329 335.174 184.887 336.512C184.43 337.893 183.298 339.224 181.764 340.541C180.236 341.852 178.371 343.101 176.519 344.341C174.68 345.571 172.847 346.797 171.44 348.041L171.439 348.042C155.642 362.08 139.849 376.085 123.753 389.756L120.53 392.485C114.726 397.377 110.14 403.15 105.89 409.126C101.625 415.121 97.7273 421.274 93.2363 427.04C74.6442 450.836 40.7775 459.839 12.8545 448.674C9.1235 447.181 5.95647 445.206 3.76562 442.624C1.58447 440.054 0.352078 436.861 0.514648 432.875C1.48472 409.236 8.33052 389.636 21.0273 375.687C33.7183 361.744 52.3044 353.392 76.8682 352.339C80.1503 352.208 83.5823 352.898 86.9043 353.67V353.669C88.8469 354.134 90.6813 354.778 92.0498 355.854C93.3947 356.913 94.3118 358.407 94.4062 360.657V360.661C94.517 362.892 93.8026 364.519 92.6133 365.739C91.4831 366.899 89.8984 367.718 88.1055 368.304L87.7461 368.417C78.57 371.177 69.1246 373.574 60.7803 380.102L60.7344 380.108L60.583 380.26L60.9902 380.718L61.042 381.074C98.7691 375.641 131.533 360.717 161.732 339.336L163.168 338.313C164.691 337.226 166.484 335.791 168.31 334.44C170.16 333.072 172.093 331.75 174 330.801C175.912 329.849 177.751 329.295 179.421 329.407Z" stroke="black"/>
<path d="M234.704 418.277C235.793 417.865 236.814 417.705 237.751 417.921C238.674 418.134 239.587 418.73 240.438 419.975L240.439 419.976C241.281 421.205 241.523 422.279 241.406 423.233C241.289 424.198 240.796 425.109 240.047 425.987C238.527 427.767 236.113 429.239 234.151 430.633C199.31 455.309 164.368 479.851 129.459 504.428C117.402 512.894 105.901 521.727 96.7219 533.879C85.8573 548.246 72.224 559.11 52.5305 557.665L52.4963 557.631L52.3069 557.619C48.3383 557.382 44.4654 557.385 40.593 556.884H40.592C31.7641 555.764 25.9603 553.41 22.7551 549.328C19.5595 545.258 18.8422 539.332 20.5442 530.786C26.287 502.033 45.3804 478.058 78.4534 476.16H78.4543C80.4961 476.042 82.4871 475.872 84.3616 475.899C86.2319 475.926 87.9283 476.15 89.3655 476.789C90.787 477.422 91.9799 478.473 92.8362 480.207C93.6455 481.847 94.1624 484.116 94.2581 487.249L94.2717 487.888C94.2978 490.318 94.9279 491.946 96.0637 492.894C97.1955 493.838 98.7074 494.003 100.259 493.795C103.345 493.382 106.997 491.433 109.372 490.17L109.371 490.169C127.168 480.765 144.762 470.959 162.187 460.884C184.302 448.128 206.141 434.922 228.179 422.072C229.187 421.487 230.3 420.725 231.39 420.035C232.5 419.333 233.615 418.688 234.704 418.277Z" stroke="black"/>
<path d="M499.333 473.936C508.706 472.207 517.018 473.249 524.344 476.561C531.446 479.772 537.65 485.129 543.001 492.22L543.515 492.912C550.401 502.294 553.293 512.247 552.391 521.934C551.489 531.623 546.787 541.096 538.395 549.506V549.507C522.289 565.683 500.265 568.634 482.702 554.97L481.869 554.307C477.071 550.39 473.009 548.706 469.027 548.881C465.308 549.045 461.756 550.829 457.838 553.707L457.049 554.296C442.391 565.441 425.887 573.609 409.641 582.262L406.396 584C404.48 585.027 402.663 586.16 400.448 586.762C398.383 587.323 395.965 587.417 392.852 586.434C397.669 578.368 404.012 573.09 410.611 568.042L413.514 565.836C426.801 555.743 439.653 545.127 453.114 535.323C461.641 529.132 461.791 520.127 463.382 511.61C467.04 492.018 480.927 477.353 499.333 473.936Z" stroke="black"/>
<path d="M474.952 365.431C482.094 360.261 490.74 357.566 498.76 358.571L499.534 358.679C518.098 361.564 532.171 377.679 532.039 395.885L532.038 396.095L532.069 396.126C531.766 421.15 506.463 439.164 483.861 429.64C479.529 427.815 475.836 427.324 472.285 427.861C468.746 428.395 465.391 429.945 461.729 432.123H461.727C428.533 451.996 395.005 471.366 361.538 490.84L361.537 490.841C357.78 493.036 353.682 494.769 349.57 496.241C348.835 496.501 347.828 496.638 346.877 496.59C345.903 496.542 345.11 496.306 344.704 495.939L344.703 495.937L344.518 495.76C344.112 495.347 343.89 494.935 343.79 494.541C343.675 494.088 343.711 493.618 343.866 493.139C344.143 492.286 344.787 491.444 345.521 490.734L345.842 490.438C352.808 484.244 359.557 477.793 367.081 472.408H367.082C394.585 452.691 420.356 430.747 446.82 409.778L446.819 409.777C454.033 404.077 458.004 397.751 459.913 388.708L460.092 387.826C461.86 378.703 467.582 370.766 474.952 365.431Z" stroke="black"/>
<path d="M303.75 511.688C304.527 511.602 305.251 511.662 305.904 511.927C306.551 512.189 307.163 512.667 307.701 513.474C308.246 514.296 308.443 515.049 308.422 515.745C308.401 516.447 308.158 517.131 307.755 517.805C306.938 519.173 305.538 520.394 304.291 521.521C295.355 529.572 285.62 536.515 275.662 543.179C265.715 549.835 255.522 556.23 245.732 563.149H245.731C232.247 572.686 218.348 581.638 204.408 590.52L190.467 599.396C184.433 603.262 180.065 608.507 175.773 613.837L173.934 616.123C162.189 630.641 147.753 639.338 128.39 635.955C121.134 634.687 116.499 632.478 113.849 628.886C111.197 625.291 110.445 620.195 111.246 612.934L111.247 612.933C113.671 590.608 132.082 571.978 155.062 568.585C158.228 568.117 160.721 567.978 162.616 568.223C164.506 568.467 165.733 569.083 166.466 570.064C167.207 571.055 167.521 572.519 167.353 574.628C167.185 576.732 166.543 579.406 165.457 582.742L165.858 582.872L165.865 583.396H166.294L166.298 583.381C178.771 582.985 188.218 578.442 197.542 572.747L197.542 572.748C227.245 554.62 257.281 537.097 287.225 519.368H287.226C291.003 517.128 294.912 515.089 298.92 513.318H298.922C300.487 512.621 302.173 511.862 303.75 511.688Z" stroke="black"/>
<path d="M195.45 82.5327C199.496 81.8751 203.132 81.5395 205.806 82.6401C207.119 83.1807 208.205 84.0713 208.996 85.4722C209.742 86.7955 210.238 88.5977 210.385 91.0317L210.411 91.5269C210.462 92.8453 210.659 94.1766 211.245 95.2827C211.843 96.4138 212.831 97.2791 214.38 97.6665L214.384 97.6675C218.261 98.6018 220.921 100.013 222.71 101.728C224.495 103.438 225.447 105.481 225.859 107.742C226.692 112.312 225.319 117.707 224.118 122.92C218.168 148.709 196.295 165.464 169.553 165.67V165.642H169.053C156.518 165.642 148.668 163.311 144.619 158.077C140.566 152.838 140.174 144.503 143.09 132.079C146.48 117.68 152.465 106.461 161.135 98.2622C169.805 90.0644 181.194 84.8535 195.45 82.5327Z" stroke="black"/>
<path d="M386.847 309.347C390.422 293.784 405.481 283.178 418.383 284.886H418.384C424.797 285.72 431.804 290.359 437.203 296.451C442.604 302.545 446.293 309.974 446.211 316.278C446.096 325.072 440.92 333.609 433.617 339.128C426.316 344.646 416.981 347.081 408.594 343.82H408.595C400.885 340.807 394.467 340.964 388.54 342.749C382.644 344.525 377.238 347.914 371.57 351.31C342.973 368.398 314.242 385.318 285.41 402.037L285.409 402.038C283.569 403.115 281.43 404.65 279.327 405.457C278.289 405.856 277.32 406.05 276.461 405.936C275.624 405.824 274.849 405.416 274.18 404.521L274.179 404.52C273.23 403.253 272.947 402.157 273.046 401.197C273.146 400.226 273.644 399.316 274.406 398.447C275.169 397.579 276.168 396.784 277.212 396.045C277.732 395.677 278.258 395.326 278.767 394.988C279.273 394.652 279.766 394.327 280.209 394.016L280.212 394.013C310.522 372.358 340.929 350.807 371.738 329.894C379.559 324.577 384.595 319.076 386.847 309.348V309.347Z" stroke="black"/>
<path d="M353.069 600.816C354.475 600.124 355.792 599.773 356.987 599.97C358.155 600.164 359.306 600.901 360.358 602.599V602.6C361.179 603.922 361.27 605.143 360.904 606.306C360.528 607.498 359.661 608.666 358.493 609.815C357.33 610.96 355.905 612.051 354.465 613.097C353.216 614.005 351.943 614.887 350.855 615.724L350.401 616.08C324.781 636.54 298.299 656.038 273.156 677.125V677.126C262.685 685.92 252.658 693.371 239.845 694.635C228.934 694.764 221.864 692.117 218.458 687.199C215.052 682.28 215.17 674.879 219.16 665.141C224.996 650.898 234.096 640.132 249.34 635.955C252.449 635.115 255.672 634.378 258.589 634.682C261.374 634.972 263.887 636.211 265.748 639.308L265.926 639.614C268.258 643.73 270.831 645.44 273.702 645.546C276.5 645.648 279.445 644.209 282.491 642.418C303.205 630.262 323.841 617.977 344.78 606.263C346.045 605.557 347.432 604.525 348.825 603.52C350.236 602.504 351.666 601.507 353.069 600.816Z" stroke="black"/>
<path d="M310.594 226.74C321.747 227.372 329.429 233.78 334.739 242.908V242.909C337.335 247.363 338.075 251.779 337.405 256.038C336.734 260.307 334.643 264.449 331.526 268.329C325.027 276.397 316.635 281.832 306.465 278.376C302.073 276.873 298.249 276.688 294.621 277.424C291.229 278.112 288.031 279.6 284.725 281.522L284.064 281.911C265.104 293.156 245.941 304.099 226.742 314.977L226.74 314.978C225.294 315.804 223.662 316.842 222.062 317.303C221.273 317.53 220.532 317.604 219.857 317.458C219.277 317.333 218.717 317.04 218.198 316.49L217.978 316.239C217.16 315.214 216.868 314.331 216.874 313.564C216.88 312.791 217.189 312.064 217.708 311.356C218.229 310.644 218.942 309.98 219.712 309.342C220.095 309.024 220.487 308.718 220.871 308.417C221.253 308.118 221.628 307.823 221.971 307.535C233.626 297.793 245.19 287.871 257.489 279.055C270.52 269.716 283.137 260.859 288.222 243.844L288.459 243.028C291.068 233.763 299.956 228.042 310.594 226.74Z" stroke="black"/>
<path d="M263.474 3.91699C270.763 0.0320946 277.11 -0.251107 282.932 1.62305C288.782 3.50621 294.145 7.58095 299.418 12.5029C301.641 14.5873 302.959 16.6659 303.649 18.7256C304.339 20.7857 304.41 22.8578 304.094 24.9434C303.457 29.153 301.27 33.3224 299.468 37.5244C292.23 54.3721 276.266 64.7211 258.839 64.7197V64.6914L258.344 64.6855C251.653 64.6026 246.4 62.6647 242.969 59.1768C239.546 55.6957 237.868 50.5993 238.462 44.0459C240.036 26.986 247.149 12.9289 262.726 4.32324L263.474 3.91699Z" stroke="black"/>
<path d="M392.814 749.588C409.181 749.258 424.434 764.041 424.863 780.627C425.06 788.049 420.881 796.185 414.735 802.448C408.589 808.712 400.582 812.996 393.251 812.849H393.25C376.767 812.555 361.862 797.829 361.558 781.786H361.584V781.286C361.584 764.437 375.899 749.919 392.814 749.588Z" stroke="black"/>
<path d="M334.024 858.871C338.704 858.613 344.218 861.272 348.675 865.286C352.991 869.173 356.196 874.223 356.687 878.873L356.726 879.322C357.031 883.89 354.299 889.307 350.16 893.68C346.025 898.048 340.609 901.241 335.718 901.484C330.697 901.727 325.448 899.163 321.398 895.113C317.352 891.066 314.571 885.6 314.424 880.147C314.294 875.138 316.665 869.954 320.363 865.941C324.062 861.928 329.033 859.148 334.024 858.871Z" stroke="black"/>
<path d="M42.9414 301.454C39.9255 240.288 84.995 195.236 145.763 198.68L147.201 198.771C149.513 198.93 151.798 199.056 153.969 199.531L154.401 199.632C156.82 200.241 159.27 200.854 161.184 202.034C162.942 203.119 164.236 204.677 164.573 207.195L164.628 207.712C164.748 209.275 164.502 210.473 164.022 211.415C163.543 212.357 162.812 213.081 161.905 213.666C160.061 214.855 157.586 215.421 155.19 216.089C140.013 220.321 125.091 225.351 113.376 237.544L113.036 237.896L113.383 238.243L113.416 238.277L113.646 238.508L113.95 238.389C128.435 232.79 142.871 227.099 158.449 225.656L159.961 225.529C169.021 224.844 175.207 226.31 178.674 229.938C182.127 233.552 183.038 239.478 181.119 248.122V248.123C174.48 278.13 159.158 300.638 137.673 313.451C116.188 326.264 88.4743 329.422 56.9766 320.604H56.9756C52.2151 319.269 48.8476 316.985 46.6016 313.814C44.3499 310.635 43.1903 306.516 42.9414 301.455V301.454Z" stroke="black"/>
<path d="M454.794 608.711C468.881 608.91 482.985 616.153 493.54 626.881C504.095 637.61 511.043 651.766 510.893 665.719L510.89 665.929L510.923 665.961C510.721 679.864 503.543 693.901 492.898 704.495C482.2 715.142 468.062 722.249 454.129 722.266C424.262 722.332 396.863 694.992 396.963 665.222C397.012 650.643 404.121 636.412 414.917 625.868C425.543 615.489 439.698 608.726 454.107 608.707L454.794 608.711Z" stroke="black"/>
<path d="M179.421 329.407C181.062 329.517 182.596 330.273 183.925 332.062C185.158 333.72 185.329 335.174 184.887 336.512C184.43 337.893 183.298 339.224 181.764 340.541C180.236 341.852 178.371 343.101 176.519 344.341C174.68 345.571 172.847 346.797 171.44 348.041L171.439 348.042C155.642 362.08 139.849 376.085 123.753 389.756L120.53 392.485C114.726 397.377 110.14 403.15 105.89 409.126C101.625 415.121 97.7273 421.274 93.2363 427.04C74.6442 450.836 40.7775 459.839 12.8545 448.674C9.1235 447.181 5.95647 445.206 3.76562 442.624C1.58447 440.054 0.352078 436.861 0.514648 432.875C1.48472 409.236 8.33052 389.636 21.0273 375.687C33.7183 361.744 52.3044 353.392 76.8682 352.339C80.1503 352.208 83.5823 352.898 86.9043 353.67V353.669C88.8469 354.134 90.6813 354.778 92.0498 355.854C93.3947 356.913 94.3118 358.407 94.4062 360.657V360.661C94.517 362.892 93.8026 364.519 92.6133 365.739C91.4831 366.899 89.8984 367.718 88.1055 368.304L87.7461 368.417C78.57 371.177 69.1246 373.574 60.7803 380.102L60.7344 380.108L60.583 380.26L60.9902 380.718L61.042 381.074C98.7691 375.641 131.533 360.717 161.732 339.336L163.168 338.313C164.691 337.226 166.484 335.791 168.31 334.44C170.16 333.072 172.093 331.75 174 330.801C175.912 329.849 177.751 329.295 179.421 329.407Z" stroke="black"/>
<path d="M234.704 418.277C235.793 417.865 236.814 417.705 237.751 417.921C238.674 418.134 239.587 418.73 240.438 419.975L240.439 419.976C241.281 421.205 241.523 422.279 241.406 423.233C241.289 424.198 240.796 425.109 240.047 425.987C238.527 427.767 236.113 429.239 234.151 430.633C199.31 455.309 164.368 479.851 129.459 504.428C117.402 512.894 105.901 521.727 96.7219 533.879C85.8573 548.246 72.224 559.11 52.5305 557.665L52.4963 557.631L52.3069 557.619C48.3383 557.382 44.4654 557.385 40.593 556.884H40.592C31.7641 555.764 25.9603 553.41 22.7551 549.328C19.5595 545.258 18.8422 539.332 20.5442 530.786C26.287 502.033 45.3804 478.058 78.4534 476.16H78.4543C80.4961 476.042 82.4871 475.872 84.3616 475.899C86.2319 475.926 87.9283 476.15 89.3655 476.789C90.787 477.422 91.9799 478.473 92.8362 480.207C93.6455 481.847 94.1624 484.116 94.2581 487.249L94.2717 487.888C94.2978 490.318 94.9279 491.946 96.0637 492.894C97.1955 493.838 98.7074 494.003 100.259 493.795C103.345 493.382 106.997 491.433 109.372 490.17L109.371 490.169C127.168 480.765 144.762 470.959 162.187 460.884C184.302 448.128 206.141 434.922 228.179 422.072C229.187 421.487 230.3 420.725 231.39 420.035C232.5 419.333 233.615 418.688 234.704 418.277Z" stroke="black"/>
<path d="M499.333 473.936C508.706 472.207 517.018 473.249 524.344 476.561C531.446 479.772 537.65 485.129 543.001 492.22L543.515 492.912C550.401 502.294 553.293 512.247 552.391 521.934C551.489 531.623 546.787 541.096 538.395 549.506V549.507C522.289 565.683 500.265 568.634 482.702 554.97L481.869 554.307C477.071 550.39 473.009 548.706 469.027 548.881C465.308 549.045 461.756 550.829 457.838 553.707L457.049 554.296C442.391 565.441 425.887 573.609 409.641 582.262L406.396 584C404.48 585.027 402.663 586.16 400.448 586.762C398.383 587.323 395.965 587.417 392.852 586.434C397.669 578.368 404.012 573.09 410.611 568.042L413.514 565.836C426.801 555.743 439.653 545.127 453.114 535.323C461.641 529.132 461.791 520.127 463.382 511.61C467.04 492.018 480.927 477.353 499.333 473.936Z" stroke="black"/>
<path d="M474.952 365.431C482.094 360.261 490.74 357.566 498.76 358.571L499.534 358.679C518.098 361.564 532.171 377.679 532.039 395.885L532.038 396.095L532.069 396.126C531.766 421.15 506.463 439.164 483.861 429.64C479.529 427.815 475.836 427.324 472.285 427.861C468.746 428.395 465.391 429.945 461.729 432.123H461.727C428.533 451.996 395.005 471.366 361.538 490.84L361.537 490.841C357.78 493.036 353.682 494.769 349.57 496.241C348.835 496.501 347.828 496.638 346.877 496.59C345.903 496.542 345.11 496.306 344.704 495.939L344.703 495.937L344.518 495.76C344.112 495.347 343.89 494.935 343.79 494.541C343.675 494.088 343.711 493.618 343.866 493.139C344.143 492.286 344.787 491.444 345.521 490.734L345.842 490.438C352.808 484.244 359.557 477.793 367.081 472.408H367.082C394.585 452.691 420.356 430.747 446.82 409.778L446.819 409.777C454.033 404.077 458.004 397.751 459.913 388.708L460.092 387.826C461.86 378.703 467.582 370.766 474.952 365.431Z" stroke="black"/>
<path d="M303.75 511.688C304.527 511.602 305.251 511.662 305.904 511.927C306.551 512.189 307.163 512.667 307.701 513.474C308.246 514.296 308.443 515.049 308.422 515.745C308.401 516.447 308.158 517.131 307.755 517.805C306.938 519.173 305.538 520.394 304.291 521.521C295.355 529.572 285.62 536.515 275.662 543.179C265.715 549.835 255.522 556.23 245.732 563.149H245.731C232.247 572.686 218.348 581.638 204.408 590.52L190.467 599.396C184.433 603.262 180.065 608.507 175.773 613.837L173.934 616.123C162.189 630.641 147.753 639.338 128.39 635.955C121.134 634.687 116.499 632.478 113.849 628.886C111.197 625.291 110.445 620.195 111.246 612.934L111.247 612.933C113.671 590.608 132.082 571.978 155.062 568.585C158.228 568.117 160.721 567.978 162.616 568.223C164.506 568.467 165.733 569.083 166.466 570.064C167.207 571.055 167.521 572.519 167.353 574.628C167.185 576.732 166.543 579.406 165.457 582.742L165.858 582.872L165.865 583.396H166.294L166.298 583.381C178.771 582.985 188.218 578.442 197.542 572.747L197.542 572.748C227.245 554.62 257.281 537.097 287.225 519.368H287.226C291.003 517.128 294.912 515.089 298.92 513.318H298.922C300.487 512.621 302.173 511.862 303.75 511.688Z" stroke="black"/>
<path d="M195.45 82.5327C199.496 81.8751 203.132 81.5395 205.806 82.6401C207.119 83.1807 208.205 84.0713 208.996 85.4722C209.742 86.7955 210.238 88.5977 210.385 91.0317L210.411 91.5269C210.462 92.8453 210.659 94.1766 211.245 95.2827C211.843 96.4138 212.831 97.2791 214.38 97.6665L214.384 97.6675C218.261 98.6018 220.921 100.013 222.71 101.728C224.495 103.438 225.447 105.481 225.859 107.742C226.692 112.312 225.319 117.707 224.118 122.92C218.168 148.709 196.295 165.464 169.553 165.67V165.642H169.053C156.518 165.642 148.668 163.311 144.619 158.077C140.566 152.838 140.174 144.503 143.09 132.079C146.48 117.68 152.465 106.461 161.135 98.2622C169.805 90.0644 181.194 84.8535 195.45 82.5327Z" stroke="black"/>
<path d="M386.847 309.347C390.422 293.784 405.481 283.178 418.383 284.886H418.384C424.797 285.72 431.804 290.359 437.203 296.451C442.604 302.545 446.293 309.974 446.211 316.278C446.096 325.072 440.92 333.609 433.617 339.128C426.316 344.646 416.981 347.081 408.594 343.82H408.595C400.885 340.807 394.467 340.964 388.54 342.749C382.644 344.525 377.238 347.914 371.57 351.31C342.973 368.398 314.242 385.318 285.41 402.037L285.409 402.038C283.569 403.115 281.43 404.65 279.327 405.457C278.289 405.856 277.32 406.05 276.461 405.936C275.624 405.824 274.849 405.416 274.18 404.521L274.179 404.52C273.23 403.253 272.947 402.157 273.046 401.197C273.146 400.226 273.644 399.316 274.406 398.447C275.169 397.579 276.168 396.784 277.212 396.045C277.732 395.677 278.258 395.326 278.767 394.988C279.273 394.652 279.766 394.327 280.209 394.016L280.212 394.013C310.522 372.358 340.929 350.807 371.738 329.894C379.559 324.577 384.595 319.076 386.847 309.348V309.347Z" stroke="black"/>
<path d="M353.069 600.816C354.475 600.124 355.792 599.773 356.987 599.97C358.155 600.164 359.306 600.901 360.358 602.599V602.6C361.179 603.922 361.27 605.143 360.904 606.306C360.528 607.498 359.661 608.666 358.493 609.815C357.33 610.96 355.905 612.051 354.465 613.097C353.216 614.005 351.943 614.887 350.855 615.724L350.401 616.08C324.781 636.54 298.299 656.038 273.156 677.125V677.126C262.685 685.92 252.658 693.371 239.845 694.635C228.934 694.764 221.864 692.117 218.458 687.199C215.052 682.28 215.17 674.879 219.16 665.141C224.996 650.898 234.096 640.132 249.34 635.955C252.449 635.115 255.672 634.378 258.589 634.682C261.374 634.972 263.887 636.211 265.748 639.308L265.926 639.614C268.258 643.73 270.831 645.44 273.702 645.546C276.5 645.648 279.445 644.209 282.491 642.418C303.205 630.262 323.841 617.977 344.78 606.263C346.045 605.557 347.432 604.525 348.825 603.52C350.236 602.504 351.666 601.507 353.069 600.816Z" stroke="black"/>
<path d="M310.594 226.74C321.747 227.372 329.429 233.78 334.739 242.908V242.909C337.335 247.363 338.075 251.779 337.405 256.038C336.734 260.307 334.643 264.449 331.526 268.329C325.027 276.397 316.635 281.832 306.465 278.376C302.073 276.873 298.249 276.688 294.621 277.424C291.229 278.112 288.031 279.6 284.725 281.522L284.064 281.911C265.104 293.156 245.941 304.099 226.742 314.977L226.74 314.978C225.294 315.804 223.662 316.842 222.062 317.303C221.273 317.53 220.532 317.604 219.857 317.458C219.277 317.333 218.717 317.04 218.198 316.49L217.978 316.239C217.16 315.214 216.868 314.331 216.874 313.564C216.88 312.791 217.189 312.064 217.708 311.356C218.229 310.644 218.942 309.98 219.712 309.342C220.095 309.024 220.487 308.718 220.871 308.417C221.253 308.118 221.628 307.823 221.971 307.535C233.626 297.793 245.19 287.871 257.489 279.055C270.52 269.716 283.137 260.859 288.222 243.844L288.459 243.028C291.068 233.763 299.956 228.042 310.594 226.74Z" stroke="black"/>
<path d="M263.474 3.91699C270.763 0.0320946 277.11 -0.251107 282.932 1.62305C288.782 3.50621 294.145 7.58095 299.418 12.5029C301.641 14.5873 302.959 16.6659 303.649 18.7256C304.339 20.7857 304.41 22.8578 304.094 24.9434C303.457 29.153 301.27 33.3224 299.468 37.5244C292.23 54.3721 276.266 64.7211 258.839 64.7197V64.6914L258.344 64.6855C251.653 64.6026 246.4 62.6647 242.969 59.1768C239.546 55.6957 237.868 50.5993 238.462 44.0459C240.036 26.986 247.149 12.9289 262.726 4.32324L263.474 3.91699Z" stroke="black"/>
<path d="M392.814 749.588C409.181 749.258 424.434 764.041 424.863 780.627C425.06 788.049 420.881 796.185 414.735 802.448C408.589 808.712 400.582 812.996 393.251 812.849H393.25C376.767 812.555 361.862 797.829 361.558 781.786H361.584V781.286C361.584 764.437 375.899 749.919 392.814 749.588Z" stroke="black"/>
<path d="M334.024 858.871C338.704 858.613 344.218 861.272 348.675 865.286C352.991 869.173 356.196 874.223 356.687 878.873L356.726 879.322C357.031 883.89 354.299 889.307 350.16 893.68C346.025 898.048 340.609 901.241 335.718 901.484C330.697 901.727 325.448 899.163 321.398 895.113C317.352 891.066 314.571 885.6 314.424 880.147C314.294 875.138 316.665 869.954 320.363 865.941C324.062 861.928 329.033 859.148 334.024 858.871Z" stroke="black"/>
</svg>
