<?xml version="1.0" encoding="UTF-8"?>
<svg id="Camada_2" data-name="Camada 2" xmlns="http://www.w3.org/2000/svg" viewBox="0 0 1060.41 283.96">
  <defs>
    <style>
      .cls-1 {
        fill: #fff;
      }
    </style>
  </defs>
  <g id="Camada_1-2" data-name="Camada 1">
    <g>
      <path class="cls-1" d="M35.82,74.91c4.7-1.82,9.42-3.67,14.54-4.06,5.73-.43,8.04,1.83,6.83,7.3-4.19,18.97-19.38,28.51-39.29,22.94-3.06-.86-4.38-2.95-4.54-6.18-.96-19.5,13.54-33.83,33-32.49.77.05,1.55.09,2.3.28,1.52.38,3.19.79,3.34,2.69.16,2.06-1.6,2.39-3.09,2.8-4.78,1.33-9.43,2.9-13.09,6.71Z"/>
      <path class="cls-1" d="M161.03,209.59c-.09,8.9-9.16,17.93-18.04,17.95-9.49.02-18.19-8.66-18.16-18.11.03-9.28,9.04-18.08,18.37-17.95,8.97.13,17.91,9.21,17.82,18.11Z"/>
      <path class="cls-1" d="M19.2,119.82c12.04-1.74,22.47-6.54,32.09-13.44,1.92-1.38,4.98-4.33,6.75-1.94,1.66,2.24-2.22,3.71-3.95,5.24-5.3,4.72-10.61,9.42-16.04,13.99-3.62,3.05-5.74,7.22-8.57,10.86-5.89,7.55-16.63,10.4-25.49,6.86-2.38-.95-4.09-2.53-3.98-5.12.61-14.93,8.66-24.84,24.2-25.51,1.06-.05,2.16.18,3.2.43,1.23.29,2.42.83,2.49,2.34.07,1.49-.96,2.22-2.21,2.6-2.91.88-5.88,1.63-8.48,3.69Z"/>
      <path class="cls-1" d="M16.46,175.71c-1.23-.07-2.48-.08-3.7-.23-5.58-.71-7.53-3-6.45-8.41,1.82-9.11,7.88-16.72,18.38-17.33,2.55-.15,5.1-.57,5.14,3.84.03,2.97,3.01,1.39,4.53.59,5.6-2.96,11.14-6.05,16.63-9.21,6.96-4.01,13.84-8.17,20.78-12.22,1.26-.73,2.92-2.28,4.07-.61,1.13,1.64-.81,2.72-2.02,3.57-10.97,7.77-21.97,15.5-32.97,23.23-3.79,2.67-7.4,5.43-10.28,9.23-3.44,4.55-7.8,8.03-14.11,7.54Z"/>
      <path class="cls-1" d="M123.46,184.72c1.77-3.05,4.21-4.86,6.64-6.7,4.18-3.18,8.23-6.53,12.47-9.61,2.62-1.9,2.66-4.65,3.17-7.37,1.17-6.23,5.58-10.9,11.45-11.98,5.96-1.1,10.61,1.32,14.07,6.04,4.37,5.96,3.69,12.69-1.63,18.02-5.2,5.22-12.37,6.12-18.01,1.52-2.99-2.44-4.97-2.02-7.62,0-4.94,3.76-10.54,6.43-15.98,9.36-1.19.64-2.38,1.48-4.57.72Z"/>
      <path class="cls-1" d="M167.7,124.64c-.05,8.01-8.15,13.82-15.4,10.76-2.68-1.13-4.54-.59-6.83.78-10.46,6.26-21.01,12.36-31.55,18.48-1.2.69-2.49,1.25-3.79,1.72-.5.18-1.35.18-1.7-.13-.74-.67-.2-1.47.36-1.96,2.19-1.94,4.32-3.98,6.7-5.68,8.66-6.21,16.77-13.1,25.11-19.71,2.31-1.83,3.55-3.86,4.12-6.82,1.13-5.84,7.31-10.12,12.6-9.3,5.91.92,10.41,6.06,10.37,11.87Z"/>
      <path class="cls-1" d="M52.23,183.5c3.96-.09,6.93-1.52,9.9-3.33,9.35-5.7,18.81-11.23,28.24-16.8,1.19-.71,2.43-1.35,3.7-1.91.97-.43,2.22-1.01,2.95.1.75,1.13-.33,2.04-1.1,2.74-5.64,5.08-12.29,8.76-18.45,13.12-5.66,4-11.56,7.68-17.41,11.42-2.15,1.37-3.61,3.31-5.17,5.23-3.72,4.6-8.32,7.37-14.49,6.3-4.59-.8-6.03-2.82-5.53-7.42.77-7.1,6.62-13.02,13.93-14.09,4.01-.59,4.82.45,3.44,4.66Z"/>
      <path class="cls-1" d="M53.22,52.31c-7.9,0-10.17-2.93-8.32-10.76,2.15-9.11,7.59-14.24,16.61-15.71,2.53-.41,4.75-.46,4.89,2.98.03.82.24,1.57,1.13,1.78,4.95,1.19,3.93,4.88,3.18,8.13-1.9,8.24-8.93,13.58-17.49,13.58Z"/>
      <path class="cls-1" d="M140.66,99.57c-.07,5.65-6.65,10.92-12.06,8.81-4.79-1.87-7.93.2-11.52,2.35-9.01,5.38-18.06,10.7-27.13,15.97-1.12.65-2.8,2-3.74.74-1.27-1.69.84-2.75,1.93-3.53,9.55-6.81,19.12-13.6,28.82-20.18,2.45-1.66,4-3.36,4.69-6.37,1.14-4.96,5.95-8.37,10.11-7.83,4.14.54,8.95,5.96,8.9,10.04Z"/>
      <path class="cls-1" d="M75.53,218.84c-6.91.08-9.19-3.34-6.67-9.51,1.85-4.52,4.74-7.95,9.61-9.28,1.95-.53,4.16-.96,5.4,1.23,1.43,2.54,3.08,1.95,5,.82,6.52-3.83,13.02-7.7,19.62-11.38,1.56-.87,3.72-3.35,5.12-1.1,1.13,1.82-1.7,3.28-3.17,4.45-8.08,6.44-16.41,12.58-24.32,19.22-3.3,2.77-6.49,5.15-10.58,5.55Z"/>
      <path class="cls-1" d="M97.8,71.23c3.59.2,6.04,2.26,7.74,5.16,1.67,2.86.96,5.71-1.03,8.19-2.06,2.56-4.76,4.34-8.06,3.21-2.72-.93-4.71-.22-6.92,1.1-5.97,3.54-12.01,6.98-18.05,10.41-.89.51-2.15,1.37-2.96.36-1.1-1.37.44-2.25,1.28-2.96,3.67-3.07,7.31-6.19,11.19-8.97,4.18-2.99,8.16-5.8,9.69-11.25.84-3,3.72-4.83,7.12-5.24Z"/>
      <path class="cls-1" d="M81.35,20.53c-4.27-.05-6.8-2.47-6.42-6.67.5-5.5,2.84-10.03,7.96-12.76,4.66-2.49,8.17-.38,11.5,2.73,2.87,2.68,1.18,5.44.06,8.05-2.32,5.41-7.48,8.71-13.1,8.65Z"/>
      <path class="cls-1" d="M113.69,245.96c0-5.39,4.58-10.03,9.99-10.13,5.24-.1,10.12,4.61,10.25,9.92.12,4.79-5.38,10.4-10.11,10.31-5.32-.1-10.14-4.89-10.13-10.1Z"/>
      <path class="cls-1" d="M98.85,277.09c-.09-3.25,3.08-6.68,6.32-6.86,3.07-.16,7.1,3.47,7.31,6.58.2,3-3.58,6.98-6.76,7.14-3.27.16-6.78-3.34-6.87-6.87Z"/>
      <path class="cls-1" d="M211.08,91.44v54.4c0,14.34,11.4,16.79,13.85,17.52.37.12.37.98.37.98h-26.83s0-.86.49-.98c2.33-.74,10.17-3.19,10.17-17.4v-55.63c-.37-11.64-7.96-10.17-10.17-10.91-.49-.12-.49-.86-.49-.86h16.05l68.37,69.6v-51.22c0-14.21-11.4-16.66-13.72-17.4-.49-.12-.49-.98-.49-.98h26.83s0,.86-.49.98c-2.33.73-10.17,3.19-10.17,17.4v67.39h-1.96l-71.8-72.9Z"/>
      <path class="cls-1" d="M391.93,147.68c8.7,16.3,13.23,14.95,15.44,15.68.49.12.61.98.61.98h-30.88s0-.86.49-.98c1.47-.49,5.39.25,5.39-4.04,0-2.21-1.1-5.88-4.17-11.64l-8.33-15.56h-43.99l-8.33,15.56c-1.35,2.45-1.84,4.66-1.84,6.37,0,6.86,8.21,8.7,10.05,9.31.37.12.37.98.37.98h-26.71s0-.86.49-.98c2.21-.74,7.96-1.47,15.44-15.68l36.88-69.11h2.21l36.88,69.11ZM327.48,130.16h42.03l-20.95-39.33-21.07,39.33Z"/>
      <path class="cls-1" d="M436.28,80.54h-2.45c-25.98,0-33.33,24.63-34.19,26.59-.12.37-.98.37-.98.37l7.72-28.92h71.56l7.72,28.92s-.86,0-.98-.37c-.86-1.96-8.09-26.59-34.19-26.59h-2.45v67.15c0,15.68,7.84,14.95,10.17,15.68.37.12.37.98.37.98h-32.84s0-.86.37-.98c2.33-.74,10.17,0,10.17-15.68v-67.15Z"/>
      <path class="cls-1" d="M568.73,151.97c-7.47,9.68-20.46,15.19-33.21,15.19-17.89,0-35.04-10.78-35.04-35.41v-37.62c-.37-14.58-7.84-13.85-10.05-14.58-.49-.12-.49-.98-.49-.98h32.96s0,.86-.49.98c-2.21.73-9.07.12-10.05,12.5v39.7c0,21.2,14.09,30.51,28.67,30.51,10.66,0,21.69-5.02,27.69-13.97v-53.05c0-15.68-7.84-14.95-10.17-15.68-.49-.12-.49-.98-.49-.98h32.96s0,.86-.49.98c-2.33.73-10.05,0-10.05,15.68v52.44c0,15.68,7.72,14.95,10.05,15.68.49.12.49.98.49.98h-22.3v-12.38Z"/>
      <path class="cls-1" d="M689.78,148.3l1.1.98c-6.49,9.19-16.79,16.91-37.25,16.91-35.29,0-53.05-22.42-53.05-44.72s17.77-44.72,53.05-44.72c15.19,0,25.24,6.13,31.86,14.7,1.1,1.35,1.47,2.82,1.47,4.17,0,3.43-3.06,6.13-6.49,6.13-1.72,0-3.43-.61-5.02-2.21-7.11-6.98-10.29-19.97-28.3-19.97-23.65,0-34.43,16.17-34.43,34.31,0,23.16,17.4,49.5,47.54,49.5,13.85,0,24.02-6.86,29.53-15.07Z"/>
      <path class="cls-1" d="M706.8,95.24c0-15.68-7.84-14.95-10.17-15.68-.49-.12-.49-.98-.49-.98h32.96s0,.86-.37.98c-2.45.73-9.8,0-10.17,14.58v56c.25,9.68,2.08,11.88,3.92,12.25h12.74c23.53,0,40.07-22.55,40.92-24.51.12-.37.98-.37.98-.37l-10.29,26.83h-70.7s0-.86.49-.98c2.33-.74,10.17,0,10.17-15.68v-52.44Z"/>
      <path class="cls-1" d="M814.75,163.37c.37.12.37.98.37.98h-32.96s0-.86.49-.98c2.33-.74,10.17,0,10.17-15.68v-52.44c0-15.68-7.84-14.95-10.17-15.68-.49-.12-.49-.98-.49-.98h32.96s0,.86-.37.98c-2.45.73-10.17,0-10.17,15.68v52.44c0,15.68,7.72,14.95,10.17,15.68Z"/>
      <path class="cls-1" d="M835.7,91.44v54.4c0,14.34,11.4,16.79,13.85,17.52.37.12.37.98.37.98h-26.83s0-.86.49-.98c2.33-.74,10.17-3.19,10.17-17.4v-55.63c-.37-11.64-7.96-10.17-10.17-10.91-.49-.12-.49-.86-.49-.86h16.05l68.37,69.6v-51.22c0-14.21-11.4-16.66-13.72-17.4-.49-.12-.49-.98-.49-.98h26.83s0,.86-.49.98c-2.33.73-10.17,3.19-10.17,17.4v67.39h-1.96l-71.8-72.9Z"/>
      <path class="cls-1" d="M960.18,163.37c.37.12.37.98.37.98h-32.96s0-.86.49-.98c2.33-.74,10.17,0,10.17-15.68v-52.44c0-15.68-7.84-14.95-10.17-15.68-.49-.12-.49-.98-.49-.98h32.96s0,.86-.37.98c-2.45.73-10.17,0-10.17,15.68v52.44c0,15.68,7.72,14.95,10.17,15.68Z"/>
      <path class="cls-1" d="M1059.3,148.3l1.1.98c-6.49,9.19-16.79,16.91-37.25,16.91-35.29,0-53.05-22.42-53.05-44.72s17.77-44.72,53.05-44.72c15.19,0,25.24,6.13,31.86,14.7,1.1,1.35,1.47,2.82,1.47,4.17,0,3.43-3.06,6.13-6.49,6.13-1.72,0-3.43-.61-5.02-2.21-7.11-6.98-10.29-19.97-28.3-19.97-23.65,0-34.43,16.17-34.43,34.31,0,23.16,17.4,49.5,47.54,49.5,13.85,0,24.02-6.86,29.53-15.07Z"/>
      <path class="cls-1" d="M221.18,216.2v2.41h-18.67v-26.4h18.11v2.41h-15.31v9.39h13.65v2.38h-13.65v9.81h15.88Z"/>
      <path class="cls-1" d="M224.12,216.35l1.21-2.11c1.58,1.25,4.26,2.23,7.05,2.23,3.77,0,5.32-1.28,5.32-3.24,0-5.17-12.86-1.09-12.86-8.94,0-3.24,2.79-5.66,7.85-5.66,2.56,0,5.36.72,7.02,1.85l-1.17,2.15c-1.74-1.21-3.81-1.7-5.85-1.7-3.58,0-5.17,1.4-5.17,3.28,0,5.36,12.86,1.32,12.86,8.94,0,3.43-3.02,5.66-8.19,5.66-3.28,0-6.45-1.06-8.07-2.45Z"/>
      <path class="cls-1" d="M255.77,217.4c-1.06.94-2.64,1.4-4.19,1.4-3.73,0-5.81-2.11-5.81-5.77v-11.99h-3.55v-2.26h3.55v-4.34h2.68v4.34h6.04v2.26h-6.04v11.84c0,2.34,1.21,3.62,3.43,3.62,1.09,0,2.19-.34,2.94-1.02l.94,1.92Z"/>
      <path class="cls-1" d="M277.19,209.52h-16.6c.3,4.15,3.47,6.9,7.81,6.9,2.41,0,4.56-.87,6.07-2.6l1.51,1.73c-1.77,2.11-4.53,3.24-7.66,3.24-6.19,0-10.41-4.22-10.41-10.11s4.11-10.07,9.69-10.07,9.62,4.11,9.62,10.07c0,.23-.04.53-.04.83ZM260.59,207.52h14.07c-.34-3.88-3.17-6.6-7.05-6.6s-6.68,2.72-7.02,6.6ZM267.8,195.71h-2.64l5.17-4.68h3.58l-6.11,4.68Z"/>
      <path class="cls-1" d="M293.14,217.4c-1.06.94-2.64,1.4-4.19,1.4-3.73,0-5.81-2.11-5.81-5.77v-11.99h-3.55v-2.26h3.55v-4.34h2.68v4.34h6.04v2.26h-6.04v11.84c0,2.34,1.21,3.62,3.43,3.62,1.09,0,2.19-.34,2.94-1.02l.94,1.92Z"/>
      <path class="cls-1" d="M297.4,192.51c0-1.02.87-1.89,1.96-1.89s1.96.83,1.96,1.85c0,1.09-.83,1.96-1.96,1.96s-1.96-.87-1.96-1.92ZM298.01,198.77h2.68v19.84h-2.68v-19.84Z"/>
      <path class="cls-1" d="M306.15,208.69c0-5.92,4.3-10.07,10.22-10.07,3.36,0,6.19,1.32,7.77,3.92l-2,1.36c-1.36-2-3.47-2.94-5.77-2.94-4.34,0-7.51,3.09-7.51,7.73s3.17,7.73,7.51,7.73c2.3,0,4.41-.91,5.77-2.9l2,1.36c-1.58,2.57-4.41,3.92-7.77,3.92-5.92,0-10.22-4.19-10.22-10.11Z"/>
      <path class="cls-1" d="M344.36,206.31v12.3h-2.56v-3.09c-1.21,2.04-3.55,3.28-6.83,3.28-4.49,0-7.24-2.34-7.24-5.77,0-3.05,1.96-5.62,7.66-5.62h6.3v-1.21c0-3.39-1.92-5.24-5.62-5.24-2.56,0-4.98.91-6.6,2.34l-1.21-2c2-1.7,4.94-2.68,8.07-2.68,5.13,0,8.03,2.56,8.03,7.69ZM341.68,212.65v-3.24h-6.22c-3.85,0-5.09,1.51-5.09,3.55,0,2.3,1.85,3.73,5.02,3.73s5.24-1.43,6.3-4.04Z"/>
      <path class="cls-1" d="M378.79,209.52h-16.6c.3,4.15,3.47,6.9,7.81,6.9,2.41,0,4.56-.87,6.07-2.6l1.51,1.73c-1.77,2.11-4.53,3.24-7.66,3.24-6.19,0-10.41-4.22-10.41-10.11s4.11-10.07,9.69-10.07,9.62,4.11,9.62,10.07c0,.23-.04.53-.04.83ZM362.19,207.52h14.07c-.34-3.88-3.17-6.6-7.05-6.6s-6.68,2.72-7.02,6.6Z"/>
      <path class="cls-1" d="M416.81,192.21v26.4h-2.3l-16.97-21.42v21.42h-2.79v-26.4h2.3l17.01,21.42v-21.42h2.75Z"/>
      <path class="cls-1" d="M442.72,198.77v19.84h-2.56v-3.62c-1.4,2.41-3.96,3.81-7.13,3.81-5.05,0-8.37-2.83-8.37-8.52v-11.5h2.68v11.24c0,4.22,2.19,6.38,5.96,6.38,4.15,0,6.75-2.68,6.75-7.2v-10.41h2.68Z"/>
      <path class="cls-1" d="M460.67,217.4c-1.06.94-2.64,1.4-4.19,1.4-3.73,0-5.81-2.11-5.81-5.77v-11.99h-3.55v-2.26h3.55v-4.34h2.68v4.34h6.04v2.26h-6.04v11.84c0,2.34,1.21,3.62,3.43,3.62,1.09,0,2.19-.34,2.94-1.02l.94,1.92Z"/>
      <path class="cls-1" d="M475.53,198.62v2.6c-.23,0-.45-.04-.64-.04-4.15,0-6.68,2.64-6.68,7.32v10.11h-2.68v-19.84h2.56v3.89c1.24-2.64,3.77-4.04,7.43-4.04Z"/>
      <path class="cls-1" d="M479.75,192.51c0-1.02.87-1.89,1.96-1.89s1.96.83,1.96,1.85c0,1.09-.83,1.96-1.96,1.96s-1.96-.87-1.96-1.92ZM480.35,198.77h2.68v19.84h-2.68v-19.84Z"/>
      <path class="cls-1" d="M504.49,213.52l2,1.36c-1.58,2.57-4.41,3.92-7.77,3.92h-.08l-.45,1.77c2.07.19,3.21,1.4,3.21,3.05,0,2.04-1.73,3.28-4.26,3.28-1.25,0-2.26-.26-3.17-.87l.64-1.43c.75.49,1.58.72,2.49.72,1.51,0,2.34-.64,2.34-1.77,0-1.02-.75-1.74-2.34-1.74h-.87l.83-3.13c-5.05-.72-8.56-4.64-8.56-10,0-5.92,4.3-10.07,10.22-10.07,3.36,0,6.19,1.32,7.77,3.92l-2,1.36c-1.36-2-3.47-2.94-5.77-2.94-4.34,0-7.51,3.09-7.51,7.73s3.17,7.73,7.51,7.73c2.3,0,4.41-.91,5.77-2.9Z"/>
      <path class="cls-1" d="M526.71,206.31v12.3h-2.57v-3.09c-1.21,2.04-3.55,3.28-6.83,3.28-4.49,0-7.24-2.34-7.24-5.77,0-3.05,1.96-5.62,7.66-5.62h6.3v-1.21c0-3.39-1.92-5.24-5.62-5.24-2.56,0-4.98.91-6.6,2.34l-1.21-2c2-1.7,4.94-2.68,8.07-2.68,5.13,0,8.03,2.56,8.03,7.69ZM524.03,212.65v-3.24h-6.22c-3.85,0-5.09,1.51-5.09,3.55,0,2.3,1.85,3.73,5.02,3.73s5.24-1.43,6.3-4.04ZM514.41,195.34h-1.62c.08-2.53,1.4-4.15,3.39-4.15,2.34,0,3.47,2.56,4.94,2.56,1.13,0,1.89-.91,1.96-2.34h1.62c-.08,2.45-1.4,4.07-3.4,4.07-2.34,0-3.43-2.57-4.94-2.57-1.13,0-1.89.91-1.96,2.41Z"/>
      <path class="cls-1" d="M532.06,208.69c0-5.88,4.3-10.07,10.11-10.07s10.07,4.19,10.07,10.07-4.26,10.11-10.07,10.11-10.11-4.22-10.11-10.11ZM549.52,208.69c0-4.64-3.13-7.73-7.36-7.73s-7.39,3.09-7.39,7.73,3.17,7.73,7.39,7.73,7.36-3.09,7.36-7.73Z"/>
      <path class="cls-1" d="M565.81,205.41c0-7.69,5.88-13.43,13.88-13.43s13.84,5.7,13.84,13.43-5.92,13.43-13.84,13.43-13.88-5.73-13.88-13.43ZM590.75,205.41c0-6.3-4.72-10.94-11.05-10.94s-11.13,4.64-11.13,10.94,4.75,10.94,11.13,10.94,11.05-4.64,11.05-10.94Z"/>
      <path class="cls-1" d="M609.22,198.62v2.6c-.23,0-.45-.04-.64-.04-4.15,0-6.68,2.64-6.68,7.32v10.11h-2.68v-19.84h2.56v3.89c1.25-2.64,3.77-4.04,7.43-4.04Z"/>
      <path class="cls-1" d="M625.36,217.4c-1.06.94-2.64,1.4-4.19,1.4-3.73,0-5.81-2.11-5.81-5.77v-11.99h-3.54v-2.26h3.54v-4.34h2.68v4.34h6.04v2.26h-6.04v11.84c0,2.34,1.21,3.62,3.43,3.62,1.09,0,2.19-.34,2.94-1.02l.94,1.92Z"/>
      <path class="cls-1" d="M627.51,208.69c0-5.88,4.3-10.07,10.11-10.07s10.07,4.19,10.07,10.07-4.26,10.11-10.07,10.11-10.11-4.22-10.11-10.11ZM644.98,208.69c0-4.64-3.13-7.73-7.36-7.73s-7.39,3.09-7.39,7.73,3.17,7.73,7.39,7.73,7.36-3.09,7.36-7.73Z"/>
      <path class="cls-1" d="M685.9,207.11v11.5h-2.68v-11.24c0-4.19-2.11-6.34-5.7-6.34-4.07,0-6.64,2.64-6.64,7.17v10.41h-2.68v-11.24c0-4.19-2.11-6.34-5.73-6.34-4.04,0-6.64,2.64-6.64,7.17v10.41h-2.68v-19.84h2.56v3.62c1.4-2.38,3.96-3.77,7.28-3.77s5.85,1.4,7.05,4.19c1.43-2.56,4.26-4.19,7.85-4.19,4.83,0,8,2.79,8,8.49Z"/>
      <path class="cls-1" d="M691.25,208.69c0-5.88,4.3-10.07,10.11-10.07s10.07,4.19,10.07,10.07-4.26,10.11-10.07,10.11-10.11-4.22-10.11-10.11ZM708.71,208.69c0-4.64-3.13-7.73-7.36-7.73s-7.39,3.09-7.39,7.73,3.17,7.73,7.39,7.73,7.36-3.09,7.36-7.73Z"/>
      <path class="cls-1" d="M716.89,190.62h2.68v27.99h-2.68v-27.99Z"/>
      <path class="cls-1" d="M744.32,209.52h-16.6c.3,4.15,3.47,6.9,7.81,6.9,2.41,0,4.56-.87,6.07-2.6l1.51,1.73c-1.77,2.11-4.53,3.24-7.66,3.24-6.19,0-10.41-4.22-10.41-10.11s4.11-10.07,9.69-10.07,9.62,4.11,9.62,10.07c0,.23-.04.53-.04.83ZM727.72,207.52h14.07c-.34-3.88-3.17-6.6-7.05-6.6s-6.68,2.72-7.02,6.6Z"/>
      <path class="cls-1" d="M747.82,208.69c0-5.92,4.3-10.07,10.22-10.07,3.36,0,6.19,1.32,7.77,3.92l-2,1.36c-1.36-2-3.47-2.94-5.77-2.94-4.34,0-7.51,3.09-7.51,7.73s3.17,7.73,7.51,7.73c2.3,0,4.41-.91,5.77-2.9l2,1.36c-1.58,2.57-4.41,3.92-7.77,3.92-5.92,0-10.22-4.19-10.22-10.11Z"/>
      <path class="cls-1" d="M788.93,198.77v19.84h-2.56v-3.62c-1.4,2.41-3.96,3.81-7.13,3.81-5.05,0-8.37-2.83-8.37-8.52v-11.5h2.68v11.24c0,4.22,2.19,6.38,5.96,6.38,4.15,0,6.75-2.68,6.75-7.2v-10.41h2.68Z"/>
      <path class="cls-1" d="M796.43,190.62h2.68v27.99h-2.68v-27.99Z"/>
      <path class="cls-1" d="M821.55,206.31v12.3h-2.56v-3.09c-1.21,2.04-3.55,3.28-6.83,3.28-4.49,0-7.24-2.34-7.24-5.77,0-3.05,1.96-5.62,7.66-5.62h6.3v-1.21c0-3.39-1.92-5.24-5.62-5.24-2.56,0-4.98.91-6.6,2.34l-1.21-2c2-1.7,4.94-2.68,8.07-2.68,5.13,0,8.03,2.56,8.03,7.69ZM818.88,212.65v-3.24h-6.22c-3.85,0-5.09,1.51-5.09,3.55,0,2.3,1.85,3.73,5.02,3.73s5.24-1.43,6.3-4.04Z"/>
      <path class="cls-1" d="M838.83,198.62v2.6c-.23,0-.45-.04-.64-.04-4.15,0-6.68,2.64-6.68,7.32v10.11h-2.68v-19.84h2.56v3.89c1.25-2.64,3.77-4.04,7.43-4.04Z"/>
    </g>
  </g>
</svg>