<?xml version="1.0" encoding="UTF-8"?>
<svg id="Camada_2" data-name="Camada 2" xmlns="http://www.w3.org/2000/svg" viewBox="0 0 164.75 268.66">
  <g id="Camada_1-2" data-name="Camada 1">
    <g>
      <g>
        <path d="M33.89,70.87c4.45-1.72,8.91-3.48,13.75-3.84,5.42-.41,7.61,1.73,6.46,6.91-3.97,17.94-18.34,26.97-37.17,21.7-2.89-.81-4.14-2.79-4.29-5.84-.91-18.45,12.81-32.01,31.22-30.74.73.05,1.47.09,2.17.26,1.43.36,3.02.75,3.16,2.54.15,1.95-1.52,2.26-2.92,2.65-4.52,1.26-8.93,2.75-12.39,6.35Z"/>
        <path d="M152.36,198.3c-.08,8.42-8.67,16.97-17.07,16.98-8.98.02-17.21-8.19-17.18-17.14.03-8.78,8.56-17.1,17.38-16.98,8.49.12,16.95,8.72,16.86,17.13Z"/>
        <path d="M18.16,113.36c11.39-1.64,21.26-6.19,30.36-12.71,1.82-1.3,4.71-4.09,6.39-1.83,1.57,2.11-2.1,3.51-3.74,4.96-5.02,4.46-10.04,8.91-15.17,13.24-3.43,2.89-5.43,6.83-8.11,10.27-5.58,7.14-15.74,9.84-24.12,6.49-2.25-.9-3.87-2.4-3.77-4.85.58-14.13,8.19-23.5,22.89-24.13,1-.04,2.04.17,3.03.4,1.17.28,2.29.79,2.35,2.22.07,1.41-.91,2.1-2.09,2.46-2.76.83-5.56,1.54-8.03,3.49Z"/>
        <path d="M15.57,166.24c-1.17-.07-2.34-.07-3.5-.22-5.28-.67-7.12-2.83-6.1-7.95,1.72-8.61,7.45-15.82,17.39-16.39,2.41-.14,4.82-.54,4.87,3.64.03,2.81,2.85,1.31,4.28.55,5.3-2.8,10.54-5.72,15.73-8.72,6.59-3.8,13.09-7.73,19.66-11.56,1.19-.69,2.77-2.16,3.85-.58,1.07,1.56-.77,2.57-1.91,3.38-10.38,7.35-20.79,14.66-31.19,21.98-3.59,2.52-7,5.14-9.72,8.74-3.26,4.31-7.38,7.6-13.35,7.14Z"/>
        <path d="M116.81,174.76c1.67-2.88,3.98-4.59,6.29-6.34,3.95-3,7.79-6.17,11.8-9.09,2.48-1.8,2.52-4.4,3-6.97,1.1-5.89,5.28-10.31,10.83-11.34,5.64-1.04,10.03,1.25,13.31,5.71,4.14,5.64,3.5,12-1.54,17.05-4.92,4.94-11.7,5.79-17.04,1.44-2.83-2.31-4.7-1.91-7.21,0-4.67,3.55-9.97,6.09-15.11,8.86-1.12.6-2.25,1.4-4.32.68Z"/>
        <path d="M158.66,117.93c-.05,7.58-7.71,13.07-14.57,10.18-2.54-1.07-4.29-.56-6.46.73-9.89,5.92-19.88,11.69-29.85,17.49-1.13.66-2.36,1.18-3.59,1.62-.48.17-1.28.17-1.6-.12-.7-.63-.19-1.39.34-1.86,2.07-1.84,4.09-3.77,6.34-5.38,8.19-5.87,15.86-12.4,23.75-18.65,2.19-1.73,3.36-3.65,3.9-6.45,1.07-5.52,6.92-9.58,11.92-8.8,5.6.87,9.85,5.73,9.81,11.23Z"/>
        <path d="M49.41,173.62c3.74-.09,6.56-1.44,9.36-3.15,8.85-5.4,17.8-10.62,26.72-15.9,1.13-.67,2.3-1.28,3.5-1.81.92-.41,2.1-.95,2.8.1.71,1.07-.31,1.93-1.04,2.59-5.34,4.81-11.63,8.29-17.46,12.41-5.36,3.79-10.94,7.27-16.47,10.8-2.03,1.3-3.42,3.13-4.89,4.95-3.52,4.35-7.87,6.98-13.71,5.96-4.35-.76-5.71-2.67-5.23-7.02.73-6.72,6.27-12.32,13.18-13.34,3.79-.56,4.56.42,3.26,4.41Z"/>
        <path d="M50.36,49.49c-7.48,0-9.62-2.77-7.88-10.18,2.03-8.62,7.18-13.48,15.72-14.87,2.4-.39,4.5-.44,4.63,2.82.03.77.23,1.48,1.07,1.69,4.69,1.13,3.72,4.62,3.01,7.7-1.8,7.8-8.45,12.85-16.55,12.85Z"/>
        <path d="M133.08,94.21c-.07,5.35-6.29,10.33-11.41,8.34-4.53-1.77-7.51.19-10.9,2.22-8.52,5.09-17.08,10.13-25.67,15.11-1.06.62-2.65,1.89-3.54.7-1.2-1.6.79-2.61,1.83-3.34,9.03-6.45,18.09-12.87,27.27-19.1,2.31-1.57,3.78-3.18,4.44-6.03,1.08-4.7,5.63-7.92,9.56-7.4,3.92.51,8.47,5.64,8.42,9.5Z"/>
        <path d="M71.46,207.05c-6.54.08-8.7-3.16-6.31-8.99,1.75-4.27,4.49-7.52,9.09-8.78,1.85-.5,3.94-.91,5.11,1.16,1.36,2.4,2.91,1.85,4.73.78,6.17-3.62,12.32-7.28,18.56-10.77,1.47-.82,3.52-3.17,4.84-1.04,1.07,1.72-1.61,3.1-3,4.21-7.64,6.1-15.52,11.9-23.01,18.18-3.12,2.62-6.14,4.87-10.01,5.25Z"/>
        <path d="M92.53,67.39c3.39.19,5.72,2.14,7.32,4.89,1.58,2.71.91,5.4-.97,7.74-1.95,2.42-4.51,4.1-7.63,3.04-2.57-.88-4.45-.21-6.55,1.04-5.65,3.35-11.36,6.61-17.08,9.85-.84.48-2.03,1.29-2.8.34-1.04-1.3.41-2.13,1.21-2.8,3.47-2.9,6.92-5.86,10.59-8.49,3.95-2.83,7.72-5.48,9.17-10.65.8-2.84,3.52-4.57,6.73-4.96Z"/>
        <path d="M76.96,19.42c-4.04-.05-6.43-2.34-6.07-6.31.48-5.2,2.68-9.49,7.53-12.07,4.41-2.35,7.73-.36,10.88,2.58,2.71,2.54,1.11,5.15.05,7.62-2.2,5.12-7.08,8.25-12.39,8.19Z"/>
        <path d="M107.57,232.71c0-5.1,4.33-9.49,9.45-9.59,4.96-.1,9.57,4.37,9.7,9.39.12,4.53-5.09,9.84-9.57,9.75-5.04-.09-9.59-4.63-9.59-9.55Z"/>
        <path d="M93.52,262.16c-.08-3.08,2.91-6.32,5.98-6.49,2.9-.16,6.72,3.28,6.92,6.23.19,2.84-3.38,6.61-6.4,6.76-3.1.15-6.41-3.16-6.5-6.5Z"/>
      </g>
      <g>
        <path d="M33.89,70.87c4.45-1.72,8.91-3.48,13.75-3.84,5.42-.41,7.61,1.73,6.46,6.91-3.97,17.94-18.34,26.97-37.17,21.7-2.89-.81-4.14-2.79-4.29-5.84-.91-18.45,12.81-32.01,31.22-30.74.73.05,1.47.09,2.17.26,1.43.36,3.02.75,3.16,2.54.15,1.95-1.52,2.26-2.92,2.65-4.52,1.26-8.93,2.75-12.39,6.35Z"/>
        <path d="M152.36,198.3c-.08,8.42-8.67,16.97-17.07,16.98-8.98.02-17.21-8.19-17.18-17.14.03-8.78,8.56-17.1,17.38-16.98,8.49.12,16.95,8.72,16.86,17.13Z"/>
        <path d="M18.16,113.36c11.39-1.64,21.26-6.19,30.36-12.71,1.82-1.3,4.71-4.09,6.39-1.83,1.57,2.11-2.1,3.51-3.74,4.96-5.02,4.46-10.04,8.91-15.17,13.24-3.43,2.89-5.43,6.83-8.11,10.27-5.58,7.14-15.74,9.84-24.12,6.49-2.25-.9-3.87-2.4-3.77-4.85.58-14.13,8.19-23.5,22.89-24.13,1-.04,2.04.17,3.03.4,1.17.28,2.29.79,2.35,2.22.07,1.41-.91,2.1-2.09,2.46-2.76.83-5.56,1.54-8.03,3.49Z"/>
        <path d="M15.57,166.24c-1.17-.07-2.34-.07-3.5-.22-5.28-.67-7.12-2.83-6.1-7.95,1.72-8.61,7.45-15.82,17.39-16.39,2.41-.14,4.82-.54,4.87,3.64.03,2.81,2.85,1.31,4.28.55,5.3-2.8,10.54-5.72,15.73-8.72,6.59-3.8,13.09-7.73,19.66-11.56,1.19-.69,2.77-2.16,3.85-.58,1.07,1.56-.77,2.57-1.91,3.38-10.38,7.35-20.79,14.66-31.19,21.98-3.59,2.52-7,5.14-9.72,8.74-3.26,4.31-7.38,7.6-13.35,7.14Z"/>
        <path d="M116.81,174.76c1.67-2.88,3.98-4.59,6.29-6.34,3.95-3,7.79-6.17,11.8-9.09,2.48-1.8,2.52-4.4,3-6.97,1.1-5.89,5.28-10.31,10.83-11.34,5.64-1.04,10.03,1.25,13.31,5.71,4.14,5.64,3.5,12-1.54,17.05-4.92,4.94-11.7,5.79-17.04,1.44-2.83-2.31-4.7-1.91-7.21,0-4.67,3.55-9.97,6.09-15.11,8.86-1.12.6-2.25,1.4-4.32.68Z"/>
        <path d="M158.66,117.93c-.05,7.58-7.71,13.07-14.57,10.18-2.54-1.07-4.29-.56-6.46.73-9.89,5.92-19.88,11.69-29.85,17.49-1.13.66-2.36,1.18-3.59,1.62-.48.17-1.28.17-1.6-.12-.7-.63-.19-1.39.34-1.86,2.07-1.84,4.09-3.77,6.34-5.38,8.19-5.87,15.86-12.4,23.75-18.65,2.19-1.73,3.36-3.65,3.9-6.45,1.07-5.52,6.92-9.58,11.92-8.8,5.6.87,9.85,5.73,9.81,11.23Z"/>
        <path d="M49.41,173.62c3.74-.09,6.56-1.44,9.36-3.15,8.85-5.4,17.8-10.62,26.72-15.9,1.13-.67,2.3-1.28,3.5-1.81.92-.41,2.1-.95,2.8.1.71,1.07-.31,1.93-1.04,2.59-5.34,4.81-11.63,8.29-17.46,12.41-5.36,3.79-10.94,7.27-16.47,10.8-2.03,1.3-3.42,3.13-4.89,4.95-3.52,4.35-7.87,6.98-13.71,5.96-4.35-.76-5.71-2.67-5.23-7.02.73-6.72,6.27-12.32,13.18-13.34,3.79-.56,4.56.42,3.26,4.41Z"/>
        <path d="M50.36,49.49c-7.48,0-9.62-2.77-7.88-10.18,2.03-8.62,7.18-13.48,15.72-14.87,2.4-.39,4.5-.44,4.63,2.82.03.77.23,1.48,1.07,1.69,4.69,1.13,3.72,4.62,3.01,7.7-1.8,7.8-8.45,12.85-16.55,12.85Z"/>
        <path d="M133.08,94.21c-.07,5.35-6.29,10.33-11.41,8.34-4.53-1.77-7.51.19-10.9,2.22-8.52,5.09-17.08,10.13-25.67,15.11-1.06.62-2.65,1.89-3.54.7-1.2-1.6.79-2.61,1.83-3.34,9.03-6.45,18.09-12.87,27.27-19.1,2.31-1.57,3.78-3.18,4.44-6.03,1.08-4.7,5.63-7.92,9.56-7.4,3.92.51,8.47,5.64,8.42,9.5Z"/>
        <path d="M71.46,207.05c-6.54.08-8.7-3.16-6.31-8.99,1.75-4.27,4.49-7.52,9.09-8.78,1.85-.5,3.94-.91,5.11,1.16,1.36,2.4,2.91,1.85,4.73.78,6.17-3.62,12.32-7.28,18.56-10.77,1.47-.82,3.52-3.17,4.84-1.04,1.07,1.72-1.61,3.1-3,4.21-7.64,6.1-15.52,11.9-23.01,18.18-3.12,2.62-6.14,4.87-10.01,5.25Z"/>
        <path d="M92.53,67.39c3.39.19,5.72,2.14,7.32,4.89,1.58,2.71.91,5.4-.97,7.74-1.95,2.42-4.51,4.1-7.63,3.04-2.57-.88-4.45-.21-6.55,1.04-5.65,3.35-11.36,6.61-17.08,9.85-.84.48-2.03,1.29-2.8.34-1.04-1.3.41-2.13,1.21-2.8,3.47-2.9,6.92-5.86,10.59-8.49,3.95-2.83,7.72-5.48,9.17-10.65.8-2.84,3.52-4.57,6.73-4.96Z"/>
        <path d="M76.96,19.42c-4.04-.05-6.43-2.34-6.07-6.31.48-5.2,2.68-9.49,7.53-12.07,4.41-2.35,7.73-.36,10.88,2.58,2.71,2.54,1.11,5.15.05,7.62-2.2,5.12-7.08,8.25-12.39,8.19Z"/>
        <path d="M107.57,232.71c0-5.1,4.33-9.49,9.45-9.59,4.96-.1,9.57,4.37,9.7,9.39.12,4.53-5.09,9.84-9.57,9.75-5.04-.09-9.59-4.63-9.59-9.55Z"/>
        <path d="M93.52,262.16c-.08-3.08,2.91-6.32,5.98-6.49,2.9-.16,6.72,3.28,6.92,6.23.19,2.84-3.38,6.61-6.4,6.76-3.1.15-6.41-3.16-6.5-6.5Z"/>
      </g>
    </g>
  </g>
</svg>