<svg width="492" height="492" viewBox="0 0 492 492" fill="none" xmlns="http://www.w3.org/2000/svg">
<path d="M245 0C245.66 0 246.32 0 247 0C247.251 0.586765 247.501 1.17353 247.759 1.77808C263.177 37.7915 280.782 72.014 305 103C305.924 104.2 306.847 105.401 307.77 106.602C324.201 127.883 342.455 148.597 363 166C363.991 166.869 364.983 167.738 366.004 168.633C403.162 201.118 446.033 227.04 492 245C492 245.66 492 246.32 492 247C491.484 247.215 490.969 247.43 490.437 247.652C454.3 262.78 419.957 280.805 389 305C387.8 305.924 386.599 306.847 385.398 307.77C364.117 324.201 343.403 342.455 326 363C325.131 363.991 324.262 364.983 323.367 366.004C290.914 403.125 264.85 446.028 247 492C246.34 492 245.68 492 245 492C244.785 491.484 244.57 490.969 244.348 490.437C229.22 454.3 211.195 419.957 187 389C186.076 387.8 185.153 386.599 184.23 385.398C167.799 364.117 149.545 343.403 129 326C128.009 325.131 127.017 324.262 125.996 323.367C88.8746 290.914 45.9718 264.85 0 247C0 246.34 0 245.68 0 245C0.777869 244.674 1.55574 244.349 2.35718 244.013C36.7125 229.557 69.1852 212.575 99 190C100.177 189.12 101.354 188.24 102.531 187.359C110.269 181.528 117.665 175.324 125 169C125.705 168.397 126.41 167.793 127.137 167.172C140.851 155.327 154.295 142.858 166 129C166.868 128.01 167.735 127.02 168.629 126C201.086 88.8802 227.15 45.9723 245 0Z" fill="black"/>
</svg>
